<svg width="608" height="155" viewBox="0 0 608 155" fill="none" xmlns="http://www.w3.org/2000/svg">
<path d="M0 0H608V154.937H460.282L399.268 90H207.662L145.577 154.937H0V0Z" fill="#474747"/>
<path d="M0 76.8989L12.7153 93.9875V144.114H145.577L193.746 93.9875L195.352 95.1268L145.577 146.393H0V76.8989Z" fill="#DADADA"/>
<path d="M606.395 77.4688L593.679 94.5574V144.684H460.817L412.648 94.5574L411.042 95.6966L460.817 146.962H606.395V77.4688Z" fill="#DADADA"/>
<path d="M0 58.1011L31.0423 99.1137V131.012H81.3521L79.0054 133.291H26.7606V99.1137L0 62.9784V61.1094V58.1011Z" fill="#DADADA"/>
<path d="M194.816 29.8735H154.14L143.625 53.7908L43.0056 53.7908L47.3902 56.0693L144.696 56.0693L155.211 32.152L194.816 32.152V29.8735Z" fill="#DADADA"/>
<path d="M411.042 29.8735H451.717L462.232 53.797L562.849 53.797L558.465 56.0761L461.162 56.0761L450.647 32.1526L411.042 32.1526V29.8735Z" fill="#DADADA"/>
<path d="M608 58.1011L576.958 99.1137V131.012H526.648L528.995 133.291H581.239V99.1137L608 62.9784V61.1094V58.1011Z" fill="#DADADA"/>
</svg>
