<svg width="629" height="800" viewBox="0 0 629 800" fill="none" xmlns="http://www.w3.org/2000/svg">
<rect x="611.001" y="800" width="593.07" height="797.011" transform="rotate(-180 611.001 800)" fill="#2F2F2F"/>
<g filter="url(#filter0_f_2763_541)">
<line x1="613.033" y1="406.49" x2="15" y2="406.49" stroke="#D74646"/>
</g>
<g filter="url(#filter1_f_2763_541)">
<path d="M388.744 357.534L413.118 405.405L388.744 453.276L388.74 453.283L363.706 500.677L314.344 501.114H314.335L264.973 500.677L239.939 453.283L239.935 453.276L215.561 405.405L239.935 357.534L239.939 357.527L264.973 310.133L314.335 309.696H314.344L363.706 310.133L388.74 357.527L388.744 357.534Z" stroke="#D74646"/>
</g>
<ellipse cx="437.025" cy="727.753" rx="0.613312" ry="1.21766" transform="rotate(-180 437.025 727.753)" fill="#D74646"/>
<ellipse cx="422.306" cy="700.152" rx="0.613312" ry="1.21766" transform="rotate(-180 422.306 700.152)" fill="#D74646"/>
<ellipse cx="332.762" cy="765.905" rx="0.613312" ry="1.21766" transform="rotate(-180 332.762 765.905)" fill="#D74646"/>
<ellipse cx="340.122" cy="726.129" rx="0.613312" ry="1.21766" transform="rotate(-180 340.122 726.129)" fill="#D74646"/>
<ellipse cx="350.753" cy="700.152" rx="0.613312" ry="1.21766" transform="rotate(-180 350.753 700.152)" fill="#D74646"/>
<ellipse cx="299.235" cy="765.905" rx="0.613312" ry="1.21766" transform="rotate(-180 299.235 765.905)" fill="#D74646"/>
<ellipse cx="230.543" cy="749.67" rx="0.613312" ry="1.21766" transform="rotate(-180 230.543 749.67)" fill="#D74646"/>
<ellipse cx="253.85" cy="637.646" rx="0.613312" ry="1.21766" transform="rotate(-180 253.85 637.646)" fill="#D74646"/>
<ellipse cx="178.22" cy="605.218" rx="0.613312" ry="1.21766" transform="rotate(-180 178.22 605.218)" fill="#D74646"/>
<ellipse cx="157.81" cy="620.651" rx="0.613312" ry="1.21766" transform="rotate(-180 157.81 620.651)" fill="#D74646"/>
<ellipse cx="113.883" cy="587.062" rx="0.613312" ry="1.21766" transform="rotate(-180 113.883 587.062)" fill="#D74646"/>
<ellipse cx="78.3862" cy="648.795" rx="0.613312" ry="1.21766" transform="rotate(-180 78.3862 648.795)" fill="#D74646"/>
<ellipse cx="47.7705" cy="554.38" rx="0.613312" ry="1.21766" transform="rotate(-180 47.7705 554.38)" fill="#D74646"/>
<ellipse cx="100.128" cy="520.79" rx="0.613312" ry="1.21766" transform="rotate(-180 100.128 520.79)" fill="#D74646"/>
<ellipse cx="196.607" cy="636.023" rx="0.613312" ry="1.21766" transform="rotate(-180 196.607 636.023)" fill="#353535"/>
<ellipse cx="182.705" cy="645.763" rx="0.613312" ry="1.21766" transform="rotate(-180 182.705 645.763)" fill="#353535"/>
<ellipse cx="179.434" cy="747.235" rx="0.613312" ry="1.21766" transform="rotate(-180 179.434 747.235)" fill="#353535"/>
<ellipse cx="137.729" cy="738.305" rx="0.613312" ry="1.21766" transform="rotate(-180 137.729 738.305)" fill="#353535"/>
<ellipse cx="53.5009" cy="612.481" rx="0.613312" ry="1.21766" transform="rotate(-180 53.5009 612.481)" fill="#353535"/>
<ellipse cx="28.5595" cy="648.199" rx="0.613312" ry="1.21766" transform="rotate(-180 28.5595 648.199)" fill="#353535"/>
<ellipse cx="12.6133" cy="525.622" rx="0.613312" ry="1.21766" transform="rotate(-180 12.6133 525.622)" fill="#353535"/>
<ellipse cx="24.062" cy="489.092" rx="0.613312" ry="1.21766" transform="rotate(-180 24.062 489.092)" fill="#353535"/>
<ellipse cx="24.062" cy="211.466" rx="0.613312" ry="1.21766" transform="rotate(-180 24.062 211.466)" fill="#353535"/>
<ellipse cx="37.146" cy="187.925" rx="0.613312" ry="1.21766" transform="rotate(-180 37.146 187.925)" fill="#353535"/>
<ellipse cx="105.019" cy="14.2062" rx="0.613312" ry="1.21766" transform="rotate(-180 105.019 14.2062)" fill="#353535"/>
<ellipse cx="166.759" cy="27.1945" rx="0.613312" ry="1.21766" transform="rotate(-180 166.759 27.1945)" fill="#353535"/>
<ellipse cx="132.005" cy="38.5592" rx="0.613312" ry="1.21766" transform="rotate(-180 132.005 38.5592)" fill="#353535"/>
<ellipse cx="62.4961" cy="131.913" rx="0.613312" ry="1.21766" transform="rotate(-180 62.4961 131.913)" fill="#353535"/>
<ellipse cx="24.4707" cy="87.2657" rx="0.613312" ry="1.21766" transform="rotate(-180 24.4707 87.2657)" fill="#353535"/>
<ellipse cx="69.4467" cy="56.4186" rx="0.613312" ry="1.21766" transform="rotate(-180 69.4467 56.4186)" fill="#353535"/>
<ellipse cx="82.9394" cy="681.482" rx="0.613312" ry="1.21766" transform="rotate(-180 82.9394 681.482)" fill="#353535"/>
<ellipse cx="87.438" cy="726.941" rx="0.613312" ry="1.21766" transform="rotate(-180 87.438 726.941)" fill="#353535"/>
<ellipse cx="27.7417" cy="757.788" rx="0.613312" ry="1.21766" transform="rotate(-180 27.7417 757.788)" fill="#353535"/>
<ellipse cx="253.032" cy="566.21" rx="0.613312" ry="1.21766" transform="rotate(-180 253.032 566.21)" fill="#D74646"/>
<ellipse cx="156.035" cy="570.721" rx="0.613312" ry="1.21766" transform="rotate(-180 156.035 570.721)" fill="#D74646"/>
<ellipse cx="159.141" cy="522.605" rx="0.613312" ry="1.21766" transform="rotate(-180 159.141 522.605)" fill="#D74646"/>
<ellipse cx="215.047" cy="613.389" rx="0.613312" ry="1.21766" transform="rotate(-180 215.047 613.389)" fill="#D74646"/>
<ellipse cx="95.6909" cy="696.002" rx="0.613312" ry="1.21766" transform="rotate(-180 95.6909 696.002)" fill="#D74646"/>
<ellipse cx="84.5981" cy="597.047" rx="0.613312" ry="1.21766" transform="rotate(-180 84.5981 597.047)" fill="#D74646"/>
<ellipse cx="46.4394" cy="283.843" rx="0.613312" ry="1.21766" transform="rotate(-180 46.4394 283.843)" fill="#D74646"/>
<ellipse cx="205.286" cy="185.797" rx="0.613312" ry="1.21766" transform="rotate(-180 205.286 185.797)" fill="#D74646"/>
<ellipse cx="441.781" cy="219.387" rx="0.613312" ry="1.21766" transform="rotate(-180 441.781 219.387)" fill="#D74646"/>
<ellipse cx="493.25" cy="231.189" rx="0.613312" ry="1.21766" transform="rotate(-180 493.25 231.189)" fill="#D74646"/>
<ellipse cx="512.773" cy="193.967" rx="0.613312" ry="1.21766" transform="rotate(-180 512.773 193.967)" fill="#D74646"/>
<ellipse cx="519.872" cy="277.489" rx="0.613312" ry="1.21766" transform="rotate(-180 519.872 277.489)" fill="#D74646"/>
<ellipse cx="468.402" cy="278.396" rx="0.613312" ry="1.21766" transform="rotate(-180 468.402 278.396)" fill="#D74646"/>
<ellipse cx="395.635" cy="208.493" rx="0.613312" ry="1.21766" transform="rotate(-180 395.635 208.493)" fill="#D74646"/>
<ellipse cx="254.98" cy="171.272" rx="0.613312" ry="1.21766" transform="rotate(-180 254.98 171.272)" fill="#D74646"/>
<ellipse cx="154.704" cy="261.148" rx="0.613312" ry="1.21766" transform="rotate(-180 154.704 261.148)" fill="#D74646"/>
<ellipse cx="112.552" cy="291.107" rx="0.613312" ry="1.21766" transform="rotate(-180 112.552 291.107)" fill="#D74646"/>
<ellipse cx="124.975" cy="228.465" rx="0.613312" ry="1.21766" transform="rotate(-180 124.975 228.465)" fill="#D74646"/>
<ellipse cx="229.317" cy="471.233" rx="0.613312" ry="1.21766" transform="rotate(-180 229.317 471.233)" fill="#353535"/>
<ellipse cx="287.786" cy="702.588" rx="0.613312" ry="1.21766" transform="rotate(-180 287.786 702.588)" fill="#D74646"/>
<ellipse cx="248.943" cy="687.976" rx="0.613312" ry="1.21766" transform="rotate(-180 248.943 687.976)" fill="#D74646"/>
<ellipse cx="149.379" cy="686.016" rx="0.613312" ry="1.21766" transform="rotate(-180 149.379 686.016)" fill="#D74646"/>
<ellipse cx="240.766" cy="360.832" rx="0.613312" ry="1.21766" transform="rotate(-180 240.766 360.832)" fill="#353535"/>
<ellipse cx="148.769" cy="336.48" rx="0.613312" ry="1.21766" transform="rotate(-180 148.769 336.48)" fill="#353535"/>
<ellipse cx="158.99" cy="468.797" rx="0.613312" ry="1.21766" transform="rotate(-180 158.99 468.797)" fill="#353535"/>
<ellipse cx="272.657" cy="360.832" rx="0.613312" ry="1.21766" transform="rotate(-180 272.657 360.832)" fill="#353535"/>
<ellipse cx="263.663" cy="134.348" rx="0.613312" ry="1.21766" transform="rotate(-180 263.663 134.348)" fill="#353535"/>
<ellipse cx="259.165" cy="263.42" rx="0.613312" ry="1.21766" transform="rotate(-180 259.165 263.42)" fill="#353535"/>
<ellipse cx="320.905" cy="130.289" rx="0.613312" ry="1.21766" transform="rotate(-180 320.905 130.289)" fill="#D74646"/>
<ellipse cx="277.564" cy="72.6534" rx="0.613312" ry="1.21766" transform="rotate(-180 277.564 72.6534)" fill="#353535"/>
<ellipse cx="204.375" cy="148.148" rx="0.613312" ry="1.21766" transform="rotate(-180 204.375 148.148)" fill="#353535"/>
<ellipse cx="333.989" cy="88.8893" rx="0.613312" ry="1.21766" transform="rotate(-180 333.989 88.8893)" fill="#D74646"/>
<ellipse cx="367.517" cy="69.4059" rx="0.613312" ry="1.21766" transform="rotate(-180 367.517 69.4059)" fill="#D74646"/>
<ellipse cx="355.659" cy="144.901" rx="0.613312" ry="1.21766" transform="rotate(-180 355.659 144.901)" fill="#D74646"/>
<ellipse cx="404.724" cy="97.007" rx="0.613312" ry="1.21766" transform="rotate(-180 404.724 97.007)" fill="#D74646"/>
<ellipse cx="345.029" cy="23.1354" rx="0.613312" ry="1.21766" transform="rotate(-180 345.029 23.1354)" fill="#D74646"/>
<ellipse cx="442.749" cy="136.784" rx="0.613312" ry="1.21766" transform="rotate(-180 442.749 136.784)" fill="#D74646"/>
<ellipse cx="505.716" cy="132.724" rx="0.613312" ry="1.21766" transform="rotate(-180 505.716 132.724)" fill="#D74646"/>
<ellipse cx="481.184" cy="88.0773" rx="0.613312" ry="1.21766" transform="rotate(-180 481.184 88.0773)" fill="#D74646"/>
<ellipse cx="433.345" cy="1.21789" rx="0.613312" ry="1.21766" transform="rotate(-180 433.345 1.21789)" fill="#D74646"/>
<ellipse cx="136.502" cy="679.858" rx="0.613312" ry="1.21766" transform="rotate(-180 136.502 679.858)" fill="#353535"/>
<ellipse cx="88.664" cy="482.598" rx="0.613312" ry="1.21766" transform="rotate(-180 88.664 482.598)" fill="#353535"/>
<ellipse cx="120.965" cy="592.999" rx="0.613312" ry="1.21766" transform="rotate(-180 120.965 592.999)" fill="#353535"/>
<ellipse cx="277.973" cy="617.352" rx="0.613312" ry="1.21766" transform="rotate(-180 277.973 617.352)" fill="#D74646"/>
<ellipse cx="306.185" cy="619.787" rx="0.613312" ry="1.21766" transform="rotate(-180 306.185 619.787)" fill="#D74646"/>
<ellipse cx="354.433" cy="635.211" rx="0.613312" ry="1.21766" transform="rotate(-180 354.433 635.211)" fill="#D74646"/>
<ellipse cx="334.398" cy="567.834" rx="0.613312" ry="1.21766" transform="rotate(-180 334.398 567.834)" fill="#D74646"/>
<ellipse cx="394.502" cy="610.045" rx="0.613312" ry="1.21766" transform="rotate(-180 394.502 610.045)" fill="#D74646"/>
<ellipse cx="205.602" cy="584.069" rx="0.613312" ry="1.21766" transform="rotate(-180 205.602 584.069)" fill="#353535"/>
<ellipse cx="206.829" cy="521.563" rx="0.613312" ry="1.21766" transform="rotate(-180 206.829 521.563)" fill="#353535"/>
<ellipse cx="448.065" cy="621.41" rx="0.613312" ry="1.21766" transform="rotate(-180 448.065 621.41)" fill="#D74646"/>
<ellipse cx="410.857" cy="643.328" rx="0.613312" ry="1.21766" transform="rotate(-180 410.857 643.328)" fill="#D74646"/>
<ellipse cx="472.598" cy="595.434" rx="0.613312" ry="1.21766" transform="rotate(-180 472.598 595.434)" fill="#D74646"/>
<ellipse cx="426.395" cy="572.704" rx="0.613312" ry="1.21766" transform="rotate(-180 426.395 572.704)" fill="#D74646"/>
<ellipse cx="482.41" cy="641.705" rx="0.613312" ry="1.21766" transform="rotate(-180 482.41 641.705)" fill="#D74646"/>
<ellipse cx="496.721" cy="623.034" rx="0.613312" ry="1.21766" transform="rotate(-180 496.721 623.034)" fill="#D74646"/>
<ellipse cx="516.347" cy="575.139" rx="0.613312" ry="1.21766" transform="rotate(-180 516.347 575.139)" fill="#D74646"/>
<ellipse cx="392.458" cy="751.294" rx="0.613312" ry="1.21766" transform="rotate(-180 392.458 751.294)" fill="#D74646"/>
<ellipse cx="486.908" cy="691.222" rx="0.613312" ry="1.21766" transform="rotate(-180 486.908 691.222)" fill="#D74646"/>
<ellipse cx="521.254" cy="686.352" rx="0.613312" ry="1.21766" transform="rotate(-180 521.254 686.352)" fill="#D74646"/>
<ellipse cx="597.304" cy="519.128" rx="0.613312" ry="1.21766" transform="rotate(-180 597.304 519.128)" fill="#D74646"/>
<ellipse cx="550.692" cy="749.67" rx="0.613312" ry="1.21766" transform="rotate(-180 550.692 749.67)" fill="#D74646"/>
<ellipse cx="554.781" cy="688.787" rx="0.613312" ry="1.21766" transform="rotate(-180 554.781 688.787)" fill="#D74646"/>
<ellipse cx="591.171" cy="692.846" rx="0.613312" ry="1.21766" transform="rotate(-180 591.171 692.846)" fill="#D74646"/>
<ellipse cx="610.388" cy="607.61" rx="0.613312" ry="1.21766" transform="rotate(-180 610.388 607.61)" fill="#D74646"/>
<ellipse cx="546.195" cy="442.009" rx="0.613312" ry="1.21766" transform="rotate(-180 546.195 442.009)" fill="#D74646"/>
<ellipse cx="551.919" cy="347.844" rx="0.613312" ry="1.21766" transform="rotate(-180 551.919 347.844)" fill="#D74646"/>
<ellipse cx="547.012" cy="265.855" rx="0.613312" ry="1.21766" transform="rotate(-180 547.012 265.855)" fill="#D74646"/>
<ellipse cx="536.79" cy="196.043" rx="0.613312" ry="1.21766" transform="rotate(-180 536.79 196.043)" fill="#D74646"/>
<ellipse cx="542.924" cy="145.713" rx="0.613312" ry="1.21766" transform="rotate(-180 542.924 145.713)" fill="#D74646"/>
<ellipse cx="525.342" cy="71.0299" rx="0.613312" ry="1.21766" transform="rotate(-180 525.342 71.0299)" fill="#D74646"/>
<ellipse cx="546.195" cy="577.575" rx="0.613312" ry="1.21766" transform="rotate(-180 546.195 577.575)" fill="#D74646"/>
<ellipse cx="586.673" cy="454.186" rx="0.613312" ry="1.21766" transform="rotate(-180 586.673 454.186)" fill="#D74646"/>
<ellipse cx="603.028" cy="386.809" rx="0.613312" ry="1.21766" transform="rotate(-180 603.028 386.809)" fill="#D74646"/>
<ellipse cx="566.23" cy="563.775" rx="0.613312" ry="1.21766" transform="rotate(-180 566.23 563.775)" fill="#D74646"/>
<ellipse cx="603.846" cy="272.349" rx="0.613312" ry="1.21766" transform="rotate(-180 603.846 272.349)" fill="#D74646"/>
<ellipse cx="578.496" cy="204.16" rx="0.613312" ry="1.21766" transform="rotate(-180 578.496 204.16)" fill="#D74646"/>
<ellipse cx="580.131" cy="63.7238" rx="0.613312" ry="1.21766" transform="rotate(-180 580.131 63.7238)" fill="#D74646"/>
<ellipse cx="475.869" cy="740.741" rx="0.613312" ry="1.21766" transform="rotate(-180 475.869 740.741)" fill="#D74646"/>
<ellipse cx="503.467" cy="718.417" rx="0.408875" ry="0.811771" transform="rotate(-180 503.467 718.417)" fill="#00B1FD"/>
<ellipse cx="391.436" cy="688.382" rx="0.408875" ry="0.811771" transform="rotate(-180 391.436 688.382)" fill="#00B1FD"/>
<ellipse cx="567.252" cy="717.606" rx="0.408875" ry="0.811771" transform="rotate(-180 567.252 717.606)" fill="#00B1FD"/>
<ellipse cx="581.154" cy="638.864" rx="0.408875" ry="0.811771" transform="rotate(-180 581.154 638.864)" fill="#00B1FD"/>
<ellipse cx="452.358" cy="702.182" rx="0.408875" ry="0.811771" transform="rotate(-180 452.358 702.182)" fill="#00B1FD"/>
<ellipse cx="310.888" cy="698.122" rx="0.408875" ry="0.811771" transform="rotate(-180 310.888 698.122)" fill="#00B1FD"/>
<ellipse cx="288.808" cy="728.158" rx="0.408875" ry="0.811771" transform="rotate(-180 288.808 728.158)" fill="#00B1FD"/>
<ellipse cx="278.178" cy="447.286" rx="0.408875" ry="0.811771" transform="rotate(-180 278.178 447.286)" fill="#00B1FD"/>
<ellipse cx="236.472" cy="715.982" rx="0.408875" ry="0.811771" transform="rotate(-180 236.472 715.982)" fill="#00B1FD"/>
<ellipse cx="234.775" cy="675.528" rx="0.408875" ry="0.811771" transform="rotate(-180 234.775 675.528)" fill="#00B1FD"/>
<ellipse cx="281.364" cy="584.744" rx="0.408875" ry="0.811771" transform="rotate(-180 281.364 584.744)" fill="#00B1FD"/>
<ellipse cx="287.132" cy="643.753" rx="0.408875" ry="0.811771" transform="rotate(-180 287.132 643.753)" fill="#00B1FD"/>
<ellipse cx="361.674" cy="586.56" rx="0.408875" ry="0.811771" transform="rotate(-180 361.674 586.56)" fill="#00B1FD"/>
<ellipse cx="228.119" cy="584.744" rx="0.408875" ry="0.811771" transform="rotate(-180 228.119 584.744)" fill="#00B1FD"/>
<ellipse cx="201.054" cy="652.832" rx="0.408875" ry="0.811771" transform="rotate(-180 201.054 652.832)" fill="#00B1FD"/>
<ellipse cx="149.139" cy="649.2" rx="0.408875" ry="0.811771" transform="rotate(-180 149.139 649.2)" fill="#00B1FD"/>
<ellipse cx="122.074" cy="685.514" rx="0.408875" ry="0.811771" transform="rotate(-180 122.074 685.514)" fill="#00B1FD"/>
<ellipse cx="173.544" cy="704.578" rx="0.408875" ry="0.811771" transform="rotate(-180 173.544 704.578)" fill="#00B1FD"/>
<ellipse cx="106.1" cy="642.845" rx="0.408875" ry="0.811771" transform="rotate(-180 106.1 642.845)" fill="#00B1FD"/>
<ellipse cx="63.0613" cy="527.55" rx="0.408875" ry="0.811771" transform="rotate(-180 63.0613 527.55)" fill="#00B1FD"/>
<ellipse cx="132.279" cy="499.407" rx="0.408875" ry="0.811771" transform="rotate(-180 132.279 499.407)" fill="#00B1FD"/>
<ellipse cx="223.239" cy="183.479" rx="0.408875" ry="0.811771" transform="rotate(-180 223.239 183.479)" fill="#00B1FD"/>
<ellipse cx="167.331" cy="284.249" rx="0.408875" ry="0.811771" transform="rotate(-180 167.331 284.249)" fill="#00B1FD"/>
<ellipse cx="474.819" cy="214.345" rx="0.408875" ry="0.811771" transform="rotate(-180 474.819 214.345)" fill="#00B1FD"/>
<ellipse cx="484.137" cy="277.895" rx="0.408875" ry="0.811771" transform="rotate(-180 484.137 277.895)" fill="#00B1FD"/>
<ellipse cx="367.721" cy="724.099" rx="0.408875" ry="0.811771" transform="rotate(-180 367.721 724.099)" fill="#00B1FD"/>
<ellipse cx="278.586" cy="536.581" rx="0.408875" ry="0.811771" transform="rotate(-180 278.586 536.581)" fill="#00B1FD"/>
<ellipse cx="548.035" cy="639.675" rx="0.408875" ry="0.811771" transform="rotate(-180 548.035 639.675)" fill="#00B1FD"/>
<ellipse cx="590.149" cy="564.992" rx="0.408875" ry="0.811771" transform="rotate(-180 590.149 564.992)" fill="#00B1FD"/>
<ellipse cx="586.878" cy="489.498" rx="0.408875" ry="0.811771" transform="rotate(-180 586.878 489.498)" fill="#00B1FD"/>
<ellipse cx="543.128" cy="497.615" rx="0.408875" ry="0.811771" transform="rotate(-180 543.128 497.615)" fill="#00B1FD"/>
<ellipse cx="546.808" cy="384.78" rx="0.408875" ry="0.811771" transform="rotate(-180 546.808 384.78)" fill="#00B1FD"/>
<ellipse cx="562.754" cy="405.073" rx="0.408875" ry="0.811771" transform="rotate(-180 562.754 405.073)" fill="#00B1FD"/>
<ellipse cx="555.803" cy="202.131" rx="0.408875" ry="0.811771" transform="rotate(-180 555.803 202.131)" fill="#00B1FD"/>
<ellipse cx="596.282" cy="132.319" rx="0.408875" ry="0.811771" transform="rotate(-180 596.282 132.319)" fill="#00B1FD"/>
<ellipse cx="512.462" cy="25.1648" rx="0.408875" ry="0.811771" transform="rotate(-180 512.462 25.1648)" fill="#00B1FD"/>
<ellipse cx="565.207" cy="289.802" rx="0.408875" ry="0.811771" transform="rotate(-180 565.207 289.802)" fill="#00B1FD"/>
<ellipse cx="505.921" cy="87.6716" rx="0.408875" ry="0.811771" transform="rotate(-180 505.921 87.6716)" fill="#00B1FD"/>
<ellipse cx="468.713" cy="138.813" rx="0.408875" ry="0.811771" transform="rotate(-180 468.713 138.813)" fill="#00B1FD"/>
<ellipse cx="443.772" cy="61.6946" rx="0.408875" ry="0.811771" transform="rotate(-180 443.772 61.6946)" fill="#00B1FD"/>
<ellipse cx="403.702" cy="144.495" rx="0.408875" ry="0.811771" transform="rotate(-180 403.702 144.495)" fill="#00B1FD"/>
<ellipse cx="368.538" cy="103.095" rx="0.408875" ry="0.811771" transform="rotate(-180 368.538 103.095)" fill="#00B1FD"/>
<ellipse cx="385.303" cy="25.9773" rx="0.408875" ry="0.811771" transform="rotate(-180 385.303 25.9773)" fill="#00B1FD"/>
<ellipse cx="321.927" cy="54.3884" rx="0.408875" ry="0.811771" transform="rotate(-180 321.927 54.3884)" fill="#00B1FD"/>
<ellipse cx="302.71" cy="99.0369" rx="0.408875" ry="0.811771" transform="rotate(-180 302.71 99.0369)" fill="#00B1FD"/>
<ellipse cx="252.009" cy="325.52" rx="0.408875" ry="0.811771" transform="rotate(-180 252.009 325.52)" fill="#00B1FD"/>
<ellipse cx="251.6" cy="439.168" rx="0.408875" ry="0.811771" transform="rotate(-180 251.6 439.168)" fill="#00B1FD"/>
<ellipse cx="216.029" cy="403.45" rx="0.408875" ry="0.811771" transform="rotate(-180 216.029 403.45)" fill="#00B1FD"/>
<ellipse cx="117.899" cy="403.45" rx="0.408875" ry="0.811771" transform="rotate(-180 117.899 403.45)" fill="#00B1FD"/>
<ellipse cx="93.7747" cy="323.085" rx="0.408875" ry="0.811771" transform="rotate(-180 93.7747 323.085)" fill="#00B1FD"/>
<ellipse cx="103.997" cy="250.026" rx="0.408875" ry="0.811771" transform="rotate(-180 103.997 250.026)" fill="#00B1FD"/>
<ellipse cx="148.973" cy="150.178" rx="0.408875" ry="0.811771" transform="rotate(-180 148.973 150.178)" fill="#00B1FD"/>
<ellipse cx="180.457" cy="112.024" rx="0.408875" ry="0.811771" transform="rotate(-180 180.457 112.024)" fill="#00B1FD"/>
<ellipse cx="235.655" cy="104.719" rx="0.408875" ry="0.811771" transform="rotate(-180 235.655 104.719)" fill="#00B1FD"/>
<ellipse cx="287.581" cy="137.19" rx="0.408875" ry="0.811771" transform="rotate(-180 287.581 137.19)" fill="#00B1FD"/>
<ellipse cx="236.472" cy="218.366" rx="0.408875" ry="0.811771" transform="rotate(-180 236.472 218.366)" fill="#00B1FD"/>
<ellipse cx="591.784" cy="324.708" rx="0.408875" ry="0.811771" transform="rotate(-180 591.784 324.708)" fill="#00B1FD"/>
<path d="M308.711 20L147 20V3L308.711 3L308.711 20Z" fill="#D74646"/>
<path d="M434.711 800H273V783H434.711L434.711 800Z" fill="#D74646"/>
<circle cx="314.5" cy="405.5" r="12.5" fill="white"/>
<g filter="url(#filter2_f_2763_541)">
<circle cx="315" cy="406" r="10" fill="white"/>
</g>
<defs>
<filter id="filter0_f_2763_541" x="0" y="390.99" width="628.033" height="31" filterUnits="userSpaceOnUse" color-interpolation-filters="sRGB">
<feFlood flood-opacity="0" result="BackgroundImageFix"/>
<feBlend mode="normal" in="SourceGraphic" in2="BackgroundImageFix" result="shape"/>
<feGaussianBlur stdDeviation="7.5" result="effect1_foregroundBlur_2763_541"/>
</filter>
<filter id="filter1_f_2763_541" x="200" y="294.196" width="228.679" height="222.418" filterUnits="userSpaceOnUse" color-interpolation-filters="sRGB">
<feFlood flood-opacity="0" result="BackgroundImageFix"/>
<feBlend mode="normal" in="SourceGraphic" in2="BackgroundImageFix" result="shape"/>
<feGaussianBlur stdDeviation="7.5" result="effect1_foregroundBlur_2763_541"/>
</filter>
<filter id="filter2_f_2763_541" x="254" y="345" width="122" height="122" filterUnits="userSpaceOnUse" color-interpolation-filters="sRGB">
<feFlood flood-opacity="0" result="BackgroundImageFix"/>
<feBlend mode="normal" in="SourceGraphic" in2="BackgroundImageFix" result="shape"/>
<feGaussianBlur stdDeviation="25.5" result="effect1_foregroundBlur_2763_541"/>
</filter>
</defs>
</svg>
