<svg width="1356" height="848" viewBox="0 0 1356 848" fill="none" xmlns="http://www.w3.org/2000/svg">
<rect x="4" width="1349" height="847" rx="20" fill="#3D3D3D"/>
<ellipse cx="397.099" cy="46.3676" rx="1.38225" ry="1.34127" fill="#D74646"/>
<ellipse cx="430.273" cy="76.77" rx="1.38225" ry="1.34127" fill="#D74646"/>
<ellipse cx="632.082" cy="4.34127" rx="1.38225" ry="1.34127" fill="#D74646"/>
<ellipse cx="615.495" cy="48.1562" rx="1.38225" ry="1.34127" fill="#D74646"/>
<ellipse cx="591.536" cy="76.77" rx="1.38225" ry="1.34127" fill="#D74646"/>
<ellipse cx="707.645" cy="4.34127" rx="1.38225" ry="1.34127" fill="#D74646"/>
<ellipse cx="862.457" cy="22.2251" rx="1.38225" ry="1.34127" fill="#D74646"/>
<ellipse cx="809.932" cy="145.622" rx="1.38225" ry="1.34127" fill="#D74646"/>
<ellipse cx="980.382" cy="181.341" rx="1.38225" ry="1.34127" fill="#D74646"/>
<ellipse cx="1026.38" cy="164.341" rx="1.38225" ry="1.34127" fill="#D74646"/>
<ellipse cx="1125.38" cy="201.341" rx="1.38225" ry="1.34127" fill="#D74646"/>
<ellipse cx="1205.38" cy="133.341" rx="1.38225" ry="1.34127" fill="#D74646"/>
<ellipse cx="1274.38" cy="237.341" rx="1.38225" ry="1.34127" fill="#D74646"/>
<ellipse cx="1156.38" cy="274.341" rx="1.38225" ry="1.34127" fill="#D74646"/>
<ellipse cx="938.942" cy="147.41" rx="1.38225" ry="1.34127" fill="#353535"/>
<ellipse cx="970.273" cy="136.68" rx="1.38225" ry="1.34127" fill="#353535"/>
<ellipse cx="977.645" cy="24.9072" rx="1.38225" ry="1.34127" fill="#353535"/>
<ellipse cx="1071.64" cy="34.7436" rx="1.38225" ry="1.34127" fill="#353535"/>
<ellipse cx="1261.47" cy="173.341" rx="1.38225" ry="1.34127" fill="#353535"/>
<ellipse cx="1317.68" cy="133.998" rx="1.38225" ry="1.34127" fill="#353535"/>
<ellipse cx="1353.62" cy="269.019" rx="1.38225" ry="1.34127" fill="#353535"/>
<ellipse cx="1327.82" cy="309.257" rx="1.38225" ry="1.34127" fill="#353535"/>
<ellipse cx="1327.82" cy="615.066" rx="1.38225" ry="1.34127" fill="#353535"/>
<ellipse cx="1298.33" cy="640.997" rx="1.38225" ry="1.34127" fill="#353535"/>
<ellipse cx="1145.36" cy="832.352" rx="1.38225" ry="1.34127" fill="#353535"/>
<ellipse cx="1006.21" cy="818.045" rx="1.38225" ry="1.34127" fill="#353535"/>
<ellipse cx="1084.54" cy="805.526" rx="1.38225" ry="1.34127" fill="#353535"/>
<ellipse cx="1241.19" cy="702.696" rx="1.38225" ry="1.34127" fill="#353535"/>
<ellipse cx="1326.89" cy="751.875" rx="1.38225" ry="1.34127" fill="#353535"/>
<ellipse cx="1225.53" cy="785.854" rx="1.38225" ry="1.34127" fill="#353535"/>
<ellipse cx="1195.12" cy="97.3359" rx="1.38225" ry="1.34127" fill="#353535"/>
<ellipse cx="1184.98" cy="47.2617" rx="1.38225" ry="1.34127" fill="#353535"/>
<ellipse cx="1319.52" cy="13.2832" rx="1.38225" ry="1.34127" fill="#353535"/>
<ellipse cx="811.775" cy="224.31" rx="1.38225" ry="1.34127" fill="#D74646"/>
<ellipse cx="1030.38" cy="219.341" rx="1.38225" ry="1.34127" fill="#D74646"/>
<ellipse cx="1023.38" cy="272.341" rx="1.38225" ry="1.34127" fill="#D74646"/>
<ellipse cx="897.382" cy="172.341" rx="1.38225" ry="1.34127" fill="#D74646"/>
<ellipse cx="1166.38" cy="81.3413" rx="1.38225" ry="1.34127" fill="#D74646"/>
<ellipse cx="1191.38" cy="190.341" rx="1.38225" ry="1.34127" fill="#D74646"/>
<ellipse cx="1277.38" cy="535.341" rx="1.38225" ry="1.34127" fill="#D74646"/>
<ellipse cx="919.382" cy="643.341" rx="1.38225" ry="1.34127" fill="#D74646"/>
<ellipse cx="386.382" cy="606.341" rx="1.38225" ry="1.34127" fill="#D74646"/>
<ellipse cx="270.382" cy="593.341" rx="1.38225" ry="1.34127" fill="#D74646"/>
<ellipse cx="226.382" cy="634.341" rx="1.38225" ry="1.34127" fill="#D74646"/>
<ellipse cx="210.382" cy="542.341" rx="1.38225" ry="1.34127" fill="#D74646"/>
<ellipse cx="326.382" cy="541.341" rx="1.38225" ry="1.34127" fill="#D74646"/>
<ellipse cx="490.382" cy="618.341" rx="1.38225" ry="1.34127" fill="#D74646"/>
<ellipse cx="807.382" cy="659.341" rx="1.38225" ry="1.34127" fill="#D74646"/>
<ellipse cx="1033.38" cy="560.341" rx="1.38225" ry="1.34127" fill="#D74646"/>
<ellipse cx="1128.38" cy="527.341" rx="1.38225" ry="1.34127" fill="#D74646"/>
<ellipse cx="1100.38" cy="596.341" rx="1.38225" ry="1.34127" fill="#D74646"/>
<ellipse cx="865.222" cy="328.929" rx="1.38225" ry="1.34127" fill="#353535"/>
<ellipse cx="733.447" cy="74.0874" rx="1.38225" ry="1.34127" fill="#D74646"/>
<ellipse cx="820.99" cy="90.1826" rx="1.38225" ry="1.34127" fill="#D74646"/>
<ellipse cx="1045.38" cy="92.3413" rx="1.38225" ry="1.34127" fill="#D74646"/>
<ellipse cx="839.42" cy="450.537" rx="1.38225" ry="1.34127" fill="#353535"/>
<ellipse cx="1046.76" cy="477.362" rx="1.38225" ry="1.34127" fill="#353535"/>
<ellipse cx="1023.72" cy="331.611" rx="1.38225" ry="1.34127" fill="#353535"/>
<ellipse cx="767.543" cy="450.537" rx="1.38225" ry="1.34127" fill="#353535"/>
<ellipse cx="787.816" cy="700.013" rx="1.38225" ry="1.34127" fill="#353535"/>
<ellipse cx="797.952" cy="557.839" rx="1.38225" ry="1.34127" fill="#353535"/>
<ellipse cx="658.806" cy="704.484" rx="1.38225" ry="1.34127" fill="#D74646"/>
<ellipse cx="756.484" cy="767.971" rx="1.38225" ry="1.34127" fill="#353535"/>
<ellipse cx="921.433" cy="684.812" rx="1.38225" ry="1.34127" fill="#353535"/>
<ellipse cx="629.317" cy="750.087" rx="1.38225" ry="1.34127" fill="#D74646"/>
<ellipse cx="553.754" cy="771.548" rx="1.38225" ry="1.34127" fill="#D74646"/>
<ellipse cx="580.477" cy="688.389" rx="1.38225" ry="1.34127" fill="#D74646"/>
<ellipse cx="469.897" cy="741.145" rx="1.38225" ry="1.34127" fill="#D74646"/>
<ellipse cx="604.437" cy="822.516" rx="1.38225" ry="1.34127" fill="#D74646"/>
<ellipse cx="384.198" cy="697.331" rx="1.38225" ry="1.34127" fill="#D74646"/>
<ellipse cx="242.287" cy="701.802" rx="1.38225" ry="1.34127" fill="#D74646"/>
<ellipse cx="297.577" cy="750.981" rx="1.38225" ry="1.34127" fill="#D74646"/>
<ellipse cx="405.393" cy="846.659" rx="1.38225" ry="1.34127" fill="#D74646"/>
<ellipse cx="1074.4" cy="99.1245" rx="1.38225" ry="1.34127" fill="#353535"/>
<ellipse cx="1182.22" cy="316.41" rx="1.38225" ry="1.34127" fill="#353535"/>
<ellipse cx="1109.42" cy="194.802" rx="1.38225" ry="1.34127" fill="#353535"/>
<ellipse cx="755.563" cy="167.976" rx="1.38225" ry="1.34127" fill="#D74646"/>
<ellipse cx="691.98" cy="165.293" rx="1.38225" ry="1.34127" fill="#D74646"/>
<ellipse cx="583.242" cy="148.304" rx="1.38225" ry="1.34127" fill="#D74646"/>
<ellipse cx="628.396" cy="222.521" rx="1.38225" ry="1.34127" fill="#D74646"/>
<ellipse cx="492.935" cy="176.024" rx="1.38225" ry="1.34127" fill="#D74646"/>
<ellipse cx="918.669" cy="204.638" rx="1.38225" ry="1.34127" fill="#353535"/>
<ellipse cx="915.905" cy="273.489" rx="1.38225" ry="1.34127" fill="#353535"/>
<ellipse cx="372.218" cy="163.505" rx="1.38225" ry="1.34127" fill="#D74646"/>
<ellipse cx="456.076" cy="139.362" rx="1.38225" ry="1.34127" fill="#D74646"/>
<ellipse cx="316.928" cy="192.119" rx="1.38225" ry="1.34127" fill="#D74646"/>
<ellipse cx="421.059" cy="217.156" rx="1.38225" ry="1.34127" fill="#D74646"/>
<ellipse cx="294.812" cy="141.151" rx="1.38225" ry="1.34127" fill="#D74646"/>
<ellipse cx="262.56" cy="161.717" rx="1.38225" ry="1.34127" fill="#D74646"/>
<ellipse cx="218.328" cy="214.474" rx="1.38225" ry="1.34127" fill="#D74646"/>
<ellipse cx="497.542" cy="20.4365" rx="1.38225" ry="1.34127" fill="#D74646"/>
<ellipse cx="284.676" cy="86.6059" rx="1.38225" ry="1.34127" fill="#D74646"/>
<ellipse cx="207.269" cy="91.9707" rx="1.38225" ry="1.34127" fill="#D74646"/>
<ellipse cx="35.87" cy="276.172" rx="1.38225" ry="1.34127" fill="#D74646"/>
<ellipse cx="140.921" cy="22.2251" rx="1.38225" ry="1.34127" fill="#D74646"/>
<ellipse cx="131.706" cy="89.2885" rx="1.38225" ry="1.34127" fill="#D74646"/>
<ellipse cx="49.6933" cy="84.8173" rx="1.38225" ry="1.34127" fill="#D74646"/>
<ellipse cx="6.38225" cy="178.706" rx="1.38225" ry="1.34127" fill="#D74646"/>
<ellipse cx="151.058" cy="361.119" rx="1.38225" ry="1.34127" fill="#D74646"/>
<ellipse cx="138.157" cy="464.844" rx="1.38225" ry="1.34127" fill="#D74646"/>
<ellipse cx="149.215" cy="555.156" rx="1.38225" ry="1.34127" fill="#D74646"/>
<ellipse cx="172.252" cy="632.056" rx="1.38225" ry="1.34127" fill="#D74646"/>
<ellipse cx="158.43" cy="687.495" rx="1.38225" ry="1.34127" fill="#D74646"/>
<ellipse cx="198.055" cy="769.759" rx="1.38225" ry="1.34127" fill="#D74646"/>
<ellipse cx="151.058" cy="211.791" rx="1.38225" ry="1.34127" fill="#D74646"/>
<ellipse cx="59.8295" cy="347.707" rx="1.38225" ry="1.34127" fill="#D74646"/>
<ellipse cx="22.9692" cy="421.923" rx="1.38225" ry="1.34127" fill="#D74646"/>
<ellipse cx="105.904" cy="226.992" rx="1.38225" ry="1.34127" fill="#D74646"/>
<ellipse cx="21.1264" cy="548.002" rx="1.38225" ry="1.34127" fill="#D74646"/>
<ellipse cx="78.2592" cy="623.114" rx="1.38225" ry="1.34127" fill="#D74646"/>
<ellipse cx="74.5737" cy="777.807" rx="1.38225" ry="1.34127" fill="#D74646"/>
<ellipse cx="309.556" cy="32.061" rx="1.38225" ry="1.34127" fill="#D74646"/>
<ellipse cx="247.355" cy="56.651" rx="0.921502" ry="0.89418" fill="#00B1FD"/>
<ellipse cx="499.846" cy="89.7355" rx="0.921502" ry="0.89418" fill="#00B1FD"/>
<ellipse cx="103.6" cy="57.5451" rx="0.921502" ry="0.89418" fill="#00B1FD"/>
<ellipse cx="72.2696" cy="144.28" rx="0.921502" ry="0.89418" fill="#00B1FD"/>
<ellipse cx="362.543" cy="74.5343" rx="0.921502" ry="0.89418" fill="#00B1FD"/>
<ellipse cx="681.382" cy="79.0055" rx="0.921502" ry="0.89418" fill="#00B1FD"/>
<ellipse cx="731.143" cy="45.9205" rx="0.921502" ry="0.89418" fill="#00B1FD"/>
<ellipse cx="755.103" cy="355.307" rx="0.921502" ry="0.89418" fill="#00B1FD"/>
<ellipse cx="849.095" cy="59.3331" rx="0.921502" ry="0.89418" fill="#00B1FD"/>
<ellipse cx="852.922" cy="103.894" rx="0.921502" ry="0.89418" fill="#00B1FD"/>
<ellipse cx="747.922" cy="203.894" rx="0.921502" ry="0.89418" fill="#00B1FD"/>
<ellipse cx="734.922" cy="138.894" rx="0.921502" ry="0.89418" fill="#00B1FD"/>
<ellipse cx="566.922" cy="201.894" rx="0.921502" ry="0.89418" fill="#00B1FD"/>
<ellipse cx="867.922" cy="203.894" rx="0.921502" ry="0.89418" fill="#00B1FD"/>
<ellipse cx="928.922" cy="128.894" rx="0.921502" ry="0.89418" fill="#00B1FD"/>
<ellipse cx="1045.92" cy="132.894" rx="0.921502" ry="0.89418" fill="#00B1FD"/>
<ellipse cx="1106.92" cy="92.8942" rx="0.921502" ry="0.89418" fill="#00B1FD"/>
<ellipse cx="990.922" cy="71.8942" rx="0.921502" ry="0.89418" fill="#00B1FD"/>
<ellipse cx="1142.92" cy="139.894" rx="0.921502" ry="0.89418" fill="#00B1FD"/>
<ellipse cx="1239.92" cy="266.894" rx="0.921502" ry="0.89418" fill="#00B1FD"/>
<ellipse cx="1083.92" cy="297.894" rx="0.921502" ry="0.89418" fill="#00B1FD"/>
<ellipse cx="878.922" cy="645.894" rx="0.921502" ry="0.89418" fill="#00B1FD"/>
<ellipse cx="1004.92" cy="534.894" rx="0.921502" ry="0.89418" fill="#00B1FD"/>
<ellipse cx="311.922" cy="611.894" rx="0.921502" ry="0.89418" fill="#00B1FD"/>
<ellipse cx="290.922" cy="541.894" rx="0.921502" ry="0.89418" fill="#00B1FD"/>
<ellipse cx="553.294" cy="50.3917" rx="0.921502" ry="0.89418" fill="#00B1FD"/>
<ellipse cx="754.181" cy="256.947" rx="0.921502" ry="0.89418" fill="#00B1FD"/>
<ellipse cx="146.911" cy="143.386" rx="0.921502" ry="0.89418" fill="#00B1FD"/>
<ellipse cx="51.9967" cy="225.651" rx="0.921502" ry="0.89418" fill="#00B1FD"/>
<ellipse cx="59.3688" cy="308.81" rx="0.921502" ry="0.89418" fill="#00B1FD"/>
<ellipse cx="157.969" cy="299.868" rx="0.921502" ry="0.89418" fill="#00B1FD"/>
<ellipse cx="149.676" cy="424.159" rx="0.921502" ry="0.89418" fill="#00B1FD"/>
<ellipse cx="113.737" cy="401.804" rx="0.921502" ry="0.89418" fill="#00B1FD"/>
<ellipse cx="129.403" cy="625.349" rx="0.921502" ry="0.89418" fill="#00B1FD"/>
<ellipse cx="38.1739" cy="702.249" rx="0.921502" ry="0.89418" fill="#00B1FD"/>
<ellipse cx="227.082" cy="820.28" rx="0.921502" ry="0.89418" fill="#00B1FD"/>
<ellipse cx="108.208" cy="528.778" rx="0.921502" ry="0.89418" fill="#00B1FD"/>
<ellipse cx="241.826" cy="751.428" rx="0.921502" ry="0.89418" fill="#00B1FD"/>
<ellipse cx="325.683" cy="695.095" rx="0.921502" ry="0.89418" fill="#00B1FD"/>
<ellipse cx="381.894" cy="780.042" rx="0.921502" ry="0.89418" fill="#00B1FD"/>
<ellipse cx="472.201" cy="688.836" rx="0.921502" ry="0.89418" fill="#00B1FD"/>
<ellipse cx="551.451" cy="734.439" rx="0.921502" ry="0.89418" fill="#00B1FD"/>
<ellipse cx="513.669" cy="819.386" rx="0.921502" ry="0.89418" fill="#00B1FD"/>
<ellipse cx="656.502" cy="788.09" rx="0.921502" ry="0.89418" fill="#00B1FD"/>
<ellipse cx="699.813" cy="738.91" rx="0.921502" ry="0.89418" fill="#00B1FD"/>
<ellipse cx="814.079" cy="489.434" rx="0.921502" ry="0.89418" fill="#00B1FD"/>
<ellipse cx="815" cy="364.249" rx="0.921502" ry="0.89418" fill="#00B1FD"/>
<ellipse cx="895.171" cy="403.592" rx="0.921502" ry="0.89418" fill="#00B1FD"/>
<ellipse cx="1116.33" cy="403.592" rx="0.921502" ry="0.89418" fill="#00B1FD"/>
<ellipse cx="1170.7" cy="492.116" rx="0.921502" ry="0.89418" fill="#00B1FD"/>
<ellipse cx="1147.66" cy="572.592" rx="0.921502" ry="0.89418" fill="#00B1FD"/>
<ellipse cx="1046.3" cy="682.577" rx="0.921502" ry="0.89418" fill="#00B1FD"/>
<ellipse cx="975.341" cy="724.603" rx="0.921502" ry="0.89418" fill="#00B1FD"/>
<ellipse cx="850.938" cy="732.651" rx="0.921502" ry="0.89418" fill="#00B1FD"/>
<ellipse cx="733.908" cy="696.883" rx="0.921502" ry="0.89418" fill="#00B1FD"/>
<ellipse cx="849.095" cy="607.465" rx="0.921502" ry="0.89418" fill="#00B1FD"/>
<ellipse cx="48.3102" cy="490.328" rx="0.921502" ry="0.89418" fill="#00B1FD"/>
<path d="M677.5 27L1129 147L677.5 56L226 147L677.5 27Z" fill="#D74646"/>
<path d="M677.5 830L226 710L677.5 801L1129 710L677.5 830Z" fill="#D74646"/>
<path d="M677 72L911 132L677 86.5L443 132L677 72Z" fill="#D74646"/>
<path d="M678.083 785.003L444.083 725.003L678.083 770.503L912.083 725.003L678.083 785.003Z" fill="#D74646"/>
<g filter="url(#filter0_d_2325_334)">
<rect x="4" y="298" width="1348" height="266" fill="url(#paint0_linear_2325_334)"/>
</g>
<defs>
<filter id="filter0_d_2325_334" x="0" y="298" width="1356" height="274" filterUnits="userSpaceOnUse" color-interpolation-filters="sRGB">
<feFlood flood-opacity="0" result="BackgroundImageFix"/>
<feColorMatrix in="SourceAlpha" type="matrix" values="0 0 0 0 0 0 0 0 0 0 0 0 0 0 0 0 0 0 127 0" result="hardAlpha"/>
<feOffset dy="4"/>
<feGaussianBlur stdDeviation="2"/>
<feComposite in2="hardAlpha" operator="out"/>
<feColorMatrix type="matrix" values="0 0 0 0 0 0 0 0 0 0 0 0 0 0 0 0 0 0 0.25 0"/>
<feBlend mode="normal" in2="BackgroundImageFix" result="effect1_dropShadow_2325_334"/>
<feBlend mode="normal" in="SourceGraphic" in2="effect1_dropShadow_2325_334" result="shape"/>
</filter>
<linearGradient id="paint0_linear_2325_334" x1="7.99999" y1="435" x2="1352" y2="436" gradientUnits="userSpaceOnUse">
<stop stop-color="#393939"/>
<stop offset="0.480648" stop-color="#4B4B4B"/>
<stop offset="1" stop-color="#393939"/>
</linearGradient>
</defs>
</svg>
