<svg width="1377" height="847" viewBox="0 0 1377 847" fill="none" xmlns="http://www.w3.org/2000/svg">
<rect width="1349" height="847" rx="20" fill="url(#paint0_linear_2585_320)"/>
<ellipse cx="419.099" cy="45.3676" rx="1.38225" ry="1.34127" fill="#D74646"/>
<ellipse cx="452.273" cy="75.77" rx="1.38225" ry="1.34127" fill="#D74646"/>
<ellipse cx="654.082" cy="3.34127" rx="1.38225" ry="1.34127" fill="#D74646"/>
<ellipse cx="637.495" cy="47.1562" rx="1.38225" ry="1.34127" fill="#D74646"/>
<ellipse cx="613.536" cy="75.77" rx="1.38225" ry="1.34127" fill="#D74646"/>
<ellipse cx="729.645" cy="3.34127" rx="1.38225" ry="1.34127" fill="#D74646"/>
<ellipse cx="884.457" cy="21.2251" rx="1.38225" ry="1.34127" fill="#D74646"/>
<ellipse cx="831.932" cy="144.622" rx="1.38225" ry="1.34127" fill="#D74646"/>
<ellipse cx="1002.38" cy="180.341" rx="1.38225" ry="1.34127" fill="#D74646"/>
<ellipse cx="1048.38" cy="163.341" rx="1.38225" ry="1.34127" fill="#D74646"/>
<ellipse cx="1147.38" cy="200.341" rx="1.38225" ry="1.34127" fill="#D74646"/>
<ellipse cx="1227.38" cy="132.341" rx="1.38225" ry="1.34127" fill="#D74646"/>
<ellipse cx="1296.38" cy="236.341" rx="1.38225" ry="1.34127" fill="#D74646"/>
<ellipse cx="1178.38" cy="273.341" rx="1.38225" ry="1.34127" fill="#D74646"/>
<ellipse cx="960.942" cy="146.41" rx="1.38225" ry="1.34127" fill="#353535"/>
<ellipse cx="992.273" cy="135.68" rx="1.38225" ry="1.34127" fill="#353535"/>
<ellipse cx="999.645" cy="23.9072" rx="1.38225" ry="1.34127" fill="#353535"/>
<ellipse cx="1093.64" cy="33.7436" rx="1.38225" ry="1.34127" fill="#353535"/>
<ellipse cx="1283.47" cy="172.341" rx="1.38225" ry="1.34127" fill="#353535"/>
<ellipse cx="1339.68" cy="132.998" rx="1.38225" ry="1.34127" fill="#353535"/>
<ellipse cx="1375.62" cy="268.019" rx="1.38225" ry="1.34127" fill="#353535"/>
<ellipse cx="1349.82" cy="308.257" rx="1.38225" ry="1.34127" fill="#353535"/>
<ellipse cx="1349.82" cy="614.066" rx="1.38225" ry="1.34127" fill="#353535"/>
<ellipse cx="1320.33" cy="639.997" rx="1.38225" ry="1.34127" fill="#353535"/>
<ellipse cx="1167.36" cy="831.352" rx="1.38225" ry="1.34127" fill="#353535"/>
<ellipse cx="1028.21" cy="817.044" rx="1.38225" ry="1.34127" fill="#353535"/>
<ellipse cx="1106.54" cy="804.527" rx="1.38225" ry="1.34127" fill="#353535"/>
<ellipse cx="1263.19" cy="701.696" rx="1.38225" ry="1.34127" fill="#353535"/>
<ellipse cx="1348.89" cy="750.875" rx="1.38225" ry="1.34127" fill="#353535"/>
<ellipse cx="1247.53" cy="784.855" rx="1.38225" ry="1.34127" fill="#353535"/>
<ellipse cx="1217.12" cy="96.3359" rx="1.38225" ry="1.34127" fill="#353535"/>
<ellipse cx="1206.98" cy="46.2617" rx="1.38225" ry="1.34127" fill="#353535"/>
<ellipse cx="1341.52" cy="12.2832" rx="1.38225" ry="1.34127" fill="#353535"/>
<ellipse cx="833.775" cy="223.31" rx="1.38225" ry="1.34127" fill="#D74646"/>
<ellipse cx="1052.38" cy="218.341" rx="1.38225" ry="1.34127" fill="#D74646"/>
<ellipse cx="1045.38" cy="271.341" rx="1.38225" ry="1.34127" fill="#D74646"/>
<ellipse cx="919.382" cy="171.341" rx="1.38225" ry="1.34127" fill="#D74646"/>
<ellipse cx="1188.38" cy="80.3413" rx="1.38225" ry="1.34127" fill="#D74646"/>
<ellipse cx="1213.38" cy="189.341" rx="1.38225" ry="1.34127" fill="#D74646"/>
<ellipse cx="1299.38" cy="534.341" rx="1.38225" ry="1.34127" fill="#D74646"/>
<ellipse cx="941.382" cy="642.341" rx="1.38225" ry="1.34127" fill="#D74646"/>
<ellipse cx="408.382" cy="605.341" rx="1.38225" ry="1.34127" fill="#D74646"/>
<ellipse cx="292.382" cy="592.341" rx="1.38225" ry="1.34127" fill="#D74646"/>
<ellipse cx="248.382" cy="633.341" rx="1.38225" ry="1.34127" fill="#D74646"/>
<ellipse cx="232.382" cy="541.341" rx="1.38225" ry="1.34127" fill="#D74646"/>
<ellipse cx="348.382" cy="540.341" rx="1.38225" ry="1.34127" fill="#D74646"/>
<ellipse cx="512.382" cy="617.341" rx="1.38225" ry="1.34127" fill="#D74646"/>
<ellipse cx="829.382" cy="658.341" rx="1.38225" ry="1.34127" fill="#D74646"/>
<ellipse cx="1055.38" cy="559.341" rx="1.38225" ry="1.34127" fill="#D74646"/>
<ellipse cx="1150.38" cy="526.341" rx="1.38225" ry="1.34127" fill="#D74646"/>
<ellipse cx="1122.38" cy="595.341" rx="1.38225" ry="1.34127" fill="#D74646"/>
<ellipse cx="887.222" cy="327.929" rx="1.38225" ry="1.34127" fill="#353535"/>
<ellipse cx="755.447" cy="73.0874" rx="1.38225" ry="1.34127" fill="#D74646"/>
<ellipse cx="842.99" cy="89.1826" rx="1.38225" ry="1.34127" fill="#D74646"/>
<ellipse cx="1067.38" cy="91.3413" rx="1.38225" ry="1.34127" fill="#D74646"/>
<ellipse cx="861.42" cy="449.537" rx="1.38225" ry="1.34127" fill="#353535"/>
<ellipse cx="1068.76" cy="476.362" rx="1.38225" ry="1.34127" fill="#353535"/>
<ellipse cx="1045.72" cy="330.611" rx="1.38225" ry="1.34127" fill="#353535"/>
<ellipse cx="789.543" cy="449.537" rx="1.38225" ry="1.34127" fill="#353535"/>
<ellipse cx="809.816" cy="699.013" rx="1.38225" ry="1.34127" fill="#353535"/>
<ellipse cx="819.952" cy="556.839" rx="1.38225" ry="1.34127" fill="#353535"/>
<ellipse cx="680.806" cy="703.484" rx="1.38225" ry="1.34127" fill="#D74646"/>
<ellipse cx="778.484" cy="766.971" rx="1.38225" ry="1.34127" fill="#353535"/>
<ellipse cx="943.433" cy="683.812" rx="1.38225" ry="1.34127" fill="#353535"/>
<ellipse cx="651.317" cy="749.087" rx="1.38225" ry="1.34127" fill="#D74646"/>
<ellipse cx="575.754" cy="770.548" rx="1.38225" ry="1.34127" fill="#D74646"/>
<ellipse cx="602.477" cy="687.389" rx="1.38225" ry="1.34127" fill="#D74646"/>
<ellipse cx="491.897" cy="740.146" rx="1.38225" ry="1.34127" fill="#D74646"/>
<ellipse cx="626.437" cy="821.516" rx="1.38225" ry="1.34127" fill="#D74646"/>
<ellipse cx="406.198" cy="696.331" rx="1.38225" ry="1.34127" fill="#D74646"/>
<ellipse cx="264.287" cy="700.802" rx="1.38225" ry="1.34127" fill="#D74646"/>
<ellipse cx="319.577" cy="749.982" rx="1.38225" ry="1.34127" fill="#D74646"/>
<ellipse cx="427.393" cy="845.659" rx="1.38225" ry="1.34127" fill="#D74646"/>
<ellipse cx="1096.4" cy="98.1245" rx="1.38225" ry="1.34127" fill="#353535"/>
<ellipse cx="1204.22" cy="315.41" rx="1.38225" ry="1.34127" fill="#353535"/>
<ellipse cx="1131.42" cy="193.802" rx="1.38225" ry="1.34127" fill="#353535"/>
<ellipse cx="777.563" cy="166.976" rx="1.38225" ry="1.34127" fill="#D74646"/>
<ellipse cx="713.98" cy="164.293" rx="1.38225" ry="1.34127" fill="#D74646"/>
<ellipse cx="605.242" cy="147.304" rx="1.38225" ry="1.34127" fill="#D74646"/>
<ellipse cx="650.396" cy="221.521" rx="1.38225" ry="1.34127" fill="#D74646"/>
<ellipse cx="514.935" cy="175.024" rx="1.38225" ry="1.34127" fill="#D74646"/>
<ellipse cx="940.669" cy="203.638" rx="1.38225" ry="1.34127" fill="#353535"/>
<ellipse cx="937.905" cy="272.489" rx="1.38225" ry="1.34127" fill="#353535"/>
<ellipse cx="394.218" cy="162.505" rx="1.38225" ry="1.34127" fill="#D74646"/>
<ellipse cx="478.076" cy="138.362" rx="1.38225" ry="1.34127" fill="#D74646"/>
<ellipse cx="338.928" cy="191.119" rx="1.38225" ry="1.34127" fill="#D74646"/>
<ellipse cx="443.059" cy="216.156" rx="1.38225" ry="1.34127" fill="#D74646"/>
<ellipse cx="316.812" cy="140.151" rx="1.38225" ry="1.34127" fill="#D74646"/>
<ellipse cx="284.56" cy="160.717" rx="1.38225" ry="1.34127" fill="#D74646"/>
<ellipse cx="240.328" cy="213.474" rx="1.38225" ry="1.34127" fill="#D74646"/>
<ellipse cx="519.542" cy="19.4365" rx="1.38225" ry="1.34127" fill="#D74646"/>
<ellipse cx="306.676" cy="85.6059" rx="1.38225" ry="1.34127" fill="#D74646"/>
<ellipse cx="229.269" cy="90.9707" rx="1.38225" ry="1.34127" fill="#D74646"/>
<ellipse cx="57.87" cy="275.172" rx="1.38225" ry="1.34127" fill="#D74646"/>
<ellipse cx="162.921" cy="21.2251" rx="1.38225" ry="1.34127" fill="#D74646"/>
<ellipse cx="153.706" cy="88.2885" rx="1.38225" ry="1.34127" fill="#D74646"/>
<ellipse cx="71.6933" cy="83.8173" rx="1.38225" ry="1.34127" fill="#D74646"/>
<ellipse cx="28.3823" cy="177.706" rx="1.38225" ry="1.34127" fill="#D74646"/>
<ellipse cx="173.058" cy="360.119" rx="1.38225" ry="1.34127" fill="#D74646"/>
<ellipse cx="160.157" cy="463.844" rx="1.38225" ry="1.34127" fill="#D74646"/>
<ellipse cx="171.215" cy="554.156" rx="1.38225" ry="1.34127" fill="#D74646"/>
<ellipse cx="194.252" cy="631.056" rx="1.38225" ry="1.34127" fill="#D74646"/>
<ellipse cx="180.43" cy="686.495" rx="1.38225" ry="1.34127" fill="#D74646"/>
<ellipse cx="220.055" cy="768.759" rx="1.38225" ry="1.34127" fill="#D74646"/>
<ellipse cx="173.058" cy="210.791" rx="1.38225" ry="1.34127" fill="#D74646"/>
<ellipse cx="81.8295" cy="346.707" rx="1.38225" ry="1.34127" fill="#D74646"/>
<ellipse cx="44.9692" cy="420.923" rx="1.38225" ry="1.34127" fill="#D74646"/>
<ellipse cx="127.904" cy="225.992" rx="1.38225" ry="1.34127" fill="#D74646"/>
<ellipse cx="43.1264" cy="547.002" rx="1.38225" ry="1.34127" fill="#D74646"/>
<ellipse cx="100.259" cy="622.114" rx="1.38225" ry="1.34127" fill="#D74646"/>
<ellipse cx="96.5737" cy="776.807" rx="1.38225" ry="1.34127" fill="#D74646"/>
<ellipse cx="331.556" cy="31.061" rx="1.38225" ry="1.34127" fill="#D74646"/>
<ellipse cx="269.355" cy="55.651" rx="0.921502" ry="0.89418" fill="#00B1FD"/>
<ellipse cx="521.846" cy="88.7355" rx="0.921502" ry="0.89418" fill="#00B1FD"/>
<ellipse cx="125.6" cy="56.5451" rx="0.921502" ry="0.89418" fill="#00B1FD"/>
<ellipse cx="94.2696" cy="143.28" rx="0.921502" ry="0.89418" fill="#00B1FD"/>
<ellipse cx="384.543" cy="73.5343" rx="0.921502" ry="0.89418" fill="#00B1FD"/>
<ellipse cx="703.382" cy="78.0055" rx="0.921502" ry="0.89418" fill="#00B1FD"/>
<ellipse cx="753.143" cy="44.9205" rx="0.921502" ry="0.89418" fill="#00B1FD"/>
<ellipse cx="777.103" cy="354.307" rx="0.921502" ry="0.89418" fill="#00B1FD"/>
<ellipse cx="871.095" cy="58.3331" rx="0.921502" ry="0.89418" fill="#00B1FD"/>
<ellipse cx="874.922" cy="102.894" rx="0.921502" ry="0.89418" fill="#00B1FD"/>
<ellipse cx="769.922" cy="202.894" rx="0.921502" ry="0.89418" fill="#00B1FD"/>
<ellipse cx="756.922" cy="137.894" rx="0.921502" ry="0.89418" fill="#00B1FD"/>
<ellipse cx="588.922" cy="200.894" rx="0.921502" ry="0.89418" fill="#00B1FD"/>
<ellipse cx="889.922" cy="202.894" rx="0.921502" ry="0.89418" fill="#00B1FD"/>
<ellipse cx="950.922" cy="127.894" rx="0.921502" ry="0.89418" fill="#00B1FD"/>
<ellipse cx="1067.92" cy="131.894" rx="0.921502" ry="0.89418" fill="#00B1FD"/>
<ellipse cx="1128.92" cy="91.8942" rx="0.921502" ry="0.89418" fill="#00B1FD"/>
<ellipse cx="1012.92" cy="70.8942" rx="0.921502" ry="0.89418" fill="#00B1FD"/>
<ellipse cx="1164.92" cy="138.894" rx="0.921502" ry="0.89418" fill="#00B1FD"/>
<ellipse cx="1261.92" cy="265.894" rx="0.921502" ry="0.89418" fill="#00B1FD"/>
<ellipse cx="1105.92" cy="296.894" rx="0.921502" ry="0.89418" fill="#00B1FD"/>
<ellipse cx="900.922" cy="644.894" rx="0.921502" ry="0.89418" fill="#00B1FD"/>
<ellipse cx="1026.92" cy="533.894" rx="0.921502" ry="0.89418" fill="#00B1FD"/>
<ellipse cx="333.922" cy="610.894" rx="0.921502" ry="0.89418" fill="#00B1FD"/>
<ellipse cx="312.922" cy="540.894" rx="0.921502" ry="0.89418" fill="#00B1FD"/>
<ellipse cx="575.294" cy="49.3917" rx="0.921502" ry="0.89418" fill="#00B1FD"/>
<ellipse cx="776.181" cy="255.947" rx="0.921502" ry="0.89418" fill="#00B1FD"/>
<ellipse cx="168.911" cy="142.386" rx="0.921502" ry="0.89418" fill="#00B1FD"/>
<ellipse cx="73.9967" cy="224.651" rx="0.921502" ry="0.89418" fill="#00B1FD"/>
<ellipse cx="81.3688" cy="307.81" rx="0.921502" ry="0.89418" fill="#00B1FD"/>
<ellipse cx="179.969" cy="298.868" rx="0.921502" ry="0.89418" fill="#00B1FD"/>
<ellipse cx="171.676" cy="423.159" rx="0.921502" ry="0.89418" fill="#00B1FD"/>
<ellipse cx="135.737" cy="400.804" rx="0.921502" ry="0.89418" fill="#00B1FD"/>
<ellipse cx="151.403" cy="624.349" rx="0.921502" ry="0.89418" fill="#00B1FD"/>
<ellipse cx="60.1739" cy="701.249" rx="0.921502" ry="0.89418" fill="#00B1FD"/>
<ellipse cx="249.082" cy="819.281" rx="0.921502" ry="0.89418" fill="#00B1FD"/>
<ellipse cx="130.208" cy="527.778" rx="0.921502" ry="0.89418" fill="#00B1FD"/>
<ellipse cx="263.826" cy="750.428" rx="0.921502" ry="0.89418" fill="#00B1FD"/>
<ellipse cx="347.683" cy="694.095" rx="0.921502" ry="0.89418" fill="#00B1FD"/>
<ellipse cx="403.894" cy="779.043" rx="0.921502" ry="0.89418" fill="#00B1FD"/>
<ellipse cx="494.201" cy="687.836" rx="0.921502" ry="0.89418" fill="#00B1FD"/>
<ellipse cx="573.451" cy="733.439" rx="0.921502" ry="0.89418" fill="#00B1FD"/>
<ellipse cx="535.669" cy="818.386" rx="0.921502" ry="0.89418" fill="#00B1FD"/>
<ellipse cx="678.502" cy="787.089" rx="0.921502" ry="0.89418" fill="#00B1FD"/>
<ellipse cx="721.813" cy="737.91" rx="0.921502" ry="0.89418" fill="#00B1FD"/>
<ellipse cx="836.079" cy="488.434" rx="0.921502" ry="0.89418" fill="#00B1FD"/>
<ellipse cx="837" cy="363.249" rx="0.921502" ry="0.89418" fill="#00B1FD"/>
<ellipse cx="917.171" cy="402.592" rx="0.921502" ry="0.89418" fill="#00B1FD"/>
<ellipse cx="1138.33" cy="402.592" rx="0.921502" ry="0.89418" fill="#00B1FD"/>
<ellipse cx="1192.7" cy="491.116" rx="0.921502" ry="0.89418" fill="#00B1FD"/>
<ellipse cx="1169.66" cy="571.592" rx="0.921502" ry="0.89418" fill="#00B1FD"/>
<ellipse cx="1068.3" cy="681.577" rx="0.921502" ry="0.89418" fill="#00B1FD"/>
<ellipse cx="997.341" cy="723.603" rx="0.921502" ry="0.89418" fill="#00B1FD"/>
<ellipse cx="872.938" cy="731.651" rx="0.921502" ry="0.89418" fill="#00B1FD"/>
<ellipse cx="755.908" cy="695.883" rx="0.921502" ry="0.89418" fill="#00B1FD"/>
<ellipse cx="871.095" cy="606.465" rx="0.921502" ry="0.89418" fill="#00B1FD"/>
<ellipse cx="70.3102" cy="489.328" rx="0.921502" ry="0.89418" fill="#00B1FD"/>
<defs>
<linearGradient id="paint0_linear_2585_320" x1="674.5" y1="0" x2="674.5" y2="847" gradientUnits="userSpaceOnUse">
<stop offset="0.161747" stop-color="#2F2F2F"/>
<stop offset="0.46281" stop-color="#4A4A4A"/>
<stop offset="0.802834" stop-color="#2F2F2F"/>
</linearGradient>
</defs>
</svg>
