<svg width="136" height="109" viewBox="0 0 136 109" fill="none" xmlns="http://www.w3.org/2000/svg">
<path d="M0 54.1141L16.7659 30.5745L34 7.25008L68 7.03499L102 7.25008L119.234 30.5745L136 54.1141L119.234 77.6537L102 100.978L68 101.193L34 100.978L16.7659 77.6537L0 54.1141Z" fill="#4E4E4E"/>
<path d="M50.1675 58.481H42.0864C42.0213 58.481 41.9888 58.4403 41.9888 58.3589L42.0132 41.208C42.0132 41.1266 42.0539 41.0859 42.1353 41.0859H44.9185C44.9998 41.0859 45.0405 41.1266 45.0405 41.208L45.0161 55.4048H50.1675C50.2489 55.4048 50.2896 55.4455 50.2896 55.5269V58.3589C50.2896 58.4403 50.2489 58.481 50.1675 58.481ZM60.104 58.481H52.0229C51.9578 58.481 51.9253 58.4403 51.9253 58.3589L51.9497 41.1836C51.9497 41.1185 51.9823 41.0859 52.0474 41.0859H60.0796C60.1447 41.0859 60.1772 41.1266 60.1772 41.208V44.0034C60.1772 44.0685 60.1447 44.1011 60.0796 44.1011H54.9526V48.0073H60.0796C60.1447 48.0073 60.1772 48.0399 60.1772 48.105L60.2017 50.937C60.2017 51.0021 60.1691 51.0347 60.104 51.0347H54.9526V55.4048H60.104C60.1691 55.4048 60.2017 55.4455 60.2017 55.5269V58.3833C60.2017 58.4484 60.1691 58.481 60.104 58.481ZM61.5811 58.3589L64.6816 41.1836C64.6979 41.1185 64.7386 41.0859 64.8037 41.0859H68.4292C68.4943 41.0859 68.535 41.1185 68.5513 41.1836L71.5298 58.3589C71.5379 58.4403 71.5054 58.481 71.4321 58.481H68.6611C68.5798 58.481 68.535 58.4403 68.5269 58.3589L68.2583 56.5278H64.8525L64.584 58.3589C64.5758 58.4403 64.5352 58.481 64.4619 58.481H61.6787C61.6136 58.481 61.5811 58.4403 61.5811 58.3589ZM66.7324 46.8354L66.5859 45.9077L66.4761 46.8354L65.353 53.8545H67.7578L66.7324 46.8354ZM78.9272 58.481H75.8999C75.8267 58.481 75.786 58.4403 75.7778 58.3589L72.3232 41.1836C72.307 41.1185 72.3395 41.0859 72.4209 41.0859H75.2529C75.318 41.0859 75.3587 41.1185 75.375 41.1836L77.4258 52.6338L79.4277 41.1836C79.444 41.1185 79.4847 41.0859 79.5498 41.0859H82.3452C82.4347 41.0859 82.4673 41.1185 82.4429 41.1836L79.0493 58.3589C79.0412 58.4403 79.0005 58.481 78.9272 58.481ZM92.0864 58.481H84.0054C83.9403 58.481 83.9077 58.4403 83.9077 58.3589L83.9321 41.1836C83.9321 41.1185 83.9647 41.0859 84.0298 41.0859H92.062C92.1271 41.0859 92.1597 41.1266 92.1597 41.208V44.0034C92.1597 44.0685 92.1271 44.1011 92.062 44.1011H86.9351V48.0073H92.062C92.1271 48.0073 92.1597 48.0399 92.1597 48.105L92.1841 50.937C92.1841 51.0021 92.1515 51.0347 92.0864 51.0347H86.9351V55.4048H92.0864C92.1515 55.4048 92.1841 55.4455 92.1841 55.5269V58.3833C92.1841 58.4484 92.1515 58.481 92.0864 58.481Z" fill="#D74646"/>
</svg>
