<svg width="691" height="334" viewBox="0 0 691 334" fill="none" xmlns="http://www.w3.org/2000/svg">
<rect width="691" height="334" rx="20" fill="#D74646"/>
<path d="M0 20C0 8.95431 8.9543 0 20 0H396L281 334H20C8.95431 334 0 325.046 0 314V20Z" fill="#3D3D3D"/>
<path d="M291.55 190L262.45 110.5H285.25L303.85 164.35L321.7 110.5H344.65L315.4 190H291.55Z" fill="#D74646"/>
<path d="M387.15 210.5C380.55 210.5 375.1 209.6 370.8 207.8C366.5 206 363.05 203.8 360.45 201.2C357.95 198.5 356.05 195.85 354.75 193.25C353.55 190.55 352.75 188.3 352.35 186.5C352.05 184.7 351.9 183.8 351.9 183.8H373.05C373.05 183.8 373.2 184.3 373.5 185.3C373.8 186.3 374.45 187.45 375.45 188.75C376.55 190.05 378.1 191.2 380.1 192.2C382.1 193.2 384.8 193.7 388.2 193.7C392.4 193.7 395.25 192.85 396.75 191.15C398.35 189.45 399.15 187.75 399.15 186.05C399.15 182.45 396.2 180.05 390.3 178.85L379.5 176.75C374.9 175.85 370.55 174.55 366.45 172.85C362.45 171.05 359.2 168.6 356.7 165.5C354.3 162.3 353.1 158.2 353.1 153.2C353.1 148.4 354.35 144.1 356.85 140.3C359.35 136.5 362.9 133.5 367.5 131.3C372.2 129.1 377.8 128 384.3 128C390.4 128 395.45 128.85 399.45 130.55C403.55 132.15 406.8 134.2 409.2 136.7C411.6 139.1 413.4 141.55 414.6 144.05C415.8 146.45 416.55 148.5 416.85 150.2C417.25 151.8 417.45 152.6 417.45 152.6H397.05C397.05 152.6 396.75 151.95 396.15 150.65C395.55 149.25 394.3 147.9 392.4 146.6C390.6 145.2 387.8 144.5 384 144.5C380.1 144.5 377.4 145.3 375.9 146.9C374.4 148.4 373.65 150 373.65 151.7C373.65 153.7 374.5 155.2 376.2 156.2C378 157.2 380.3 158 383.1 158.6L393.45 160.7C401.05 162.2 407.3 164.85 412.2 168.65C417.1 172.35 419.55 177.75 419.55 184.85C419.55 189.65 418.3 194 415.8 197.9C413.3 201.8 409.65 204.9 404.85 207.2C400.05 209.4 394.15 210.5 387.15 210.5Z" fill="#3D3D3D"/>
<circle cx="211.5" cy="30.5" r="2.5" fill="#D74646"/>
<circle cx="226.5" cy="30.5" r="2.5" fill="#D74646"/>
<circle cx="241.5" cy="30.5" r="2.5" fill="#D74646"/>
<circle cx="256.5" cy="30.5" r="2.5" fill="#D74646"/>
<circle cx="271.5" cy="30.5" r="2.5" fill="#D74646"/>
<circle cx="286.5" cy="30.5" r="2.5" fill="#D74646"/>
<circle cx="301.5" cy="30.5" r="2.5" fill="#D74646"/>
<circle cx="316.5" cy="30.5" r="2.5" fill="#D74646"/>
<circle cx="331.5" cy="30.5" r="2.5" fill="#D74646"/>
<circle cx="346.5" cy="30.5" r="2.5" fill="#D74646"/>
<circle cx="361.5" cy="30.5" r="2.5" fill="#D74646"/>
<circle cx="320.5" cy="298.5" r="2.5" fill="#3D3D3D"/>
<circle cx="335.5" cy="298.5" r="2.5" fill="#3D3D3D"/>
<circle cx="350.5" cy="298.5" r="2.5" fill="#3D3D3D"/>
<circle cx="365.5" cy="298.5" r="2.5" fill="#3D3D3D"/>
<circle cx="380.5" cy="298.5" r="2.5" fill="#3D3D3D"/>
<circle cx="395.5" cy="298.5" r="2.5" fill="#3D3D3D"/>
<circle cx="410.5" cy="298.5" r="2.5" fill="#3D3D3D"/>
<circle cx="425.5" cy="298.5" r="2.5" fill="#3D3D3D"/>
<circle cx="440.5" cy="298.5" r="2.5" fill="#3D3D3D"/>
<circle cx="455.5" cy="298.5" r="2.5" fill="#3D3D3D"/>
<circle cx="470.5" cy="298.5" r="2.5" fill="#3D3D3D"/>
</svg>
