<svg width="800" height="629" viewBox="0 0 800 629" fill="none" xmlns="http://www.w3.org/2000/svg">
<rect x="-0.00976562" y="611.001" width="593.07" height="797.011" transform="rotate(-90 -0.00976562 611.001)" fill="#2F2F2F"/>
<g filter="url(#filter0_f_2535_495)">
<line x1="393.5" y1="613.033" x2="393.5" y2="15" stroke="#D74646"/>
</g>
<g filter="url(#filter1_f_2535_495)">
<path d="M442.456 388.744L394.585 413.118L346.714 388.744L346.707 388.74L299.313 363.706L298.876 314.344V314.335L299.313 264.973L346.707 239.939L346.714 239.935L394.585 215.561L442.456 239.935L442.463 239.939L489.857 264.973L490.294 314.335V314.344L489.857 363.706L442.463 388.74L442.456 388.744Z" stroke="#D74646"/>
</g>
<ellipse cx="72.2377" cy="437.025" rx="0.613312" ry="1.21766" transform="rotate(-90 72.2377 437.025)" fill="#D74646"/>
<ellipse cx="99.8378" cy="422.306" rx="0.613312" ry="1.21766" transform="rotate(-90 99.8378 422.306)" fill="#D74646"/>
<ellipse cx="34.0848" cy="332.762" rx="0.613312" ry="1.21766" transform="rotate(-90 34.0848 332.762)" fill="#D74646"/>
<ellipse cx="73.8617" cy="340.122" rx="0.613312" ry="1.21766" transform="rotate(-90 73.8617 340.122)" fill="#D74646"/>
<ellipse cx="99.8378" cy="350.753" rx="0.613312" ry="1.21766" transform="rotate(-90 99.8378 350.753)" fill="#D74646"/>
<ellipse cx="34.0848" cy="299.235" rx="0.613312" ry="1.21766" transform="rotate(-90 34.0848 299.235)" fill="#D74646"/>
<ellipse cx="50.3202" cy="230.543" rx="0.613312" ry="1.21766" transform="rotate(-90 50.3202 230.543)" fill="#D74646"/>
<ellipse cx="162.344" cy="253.85" rx="0.613312" ry="1.21766" transform="rotate(-90 162.344 253.85)" fill="#D74646"/>
<ellipse cx="194.772" cy="178.22" rx="0.613312" ry="1.21766" transform="rotate(-90 194.772 178.22)" fill="#D74646"/>
<ellipse cx="179.339" cy="157.81" rx="0.613312" ry="1.21766" transform="rotate(-90 179.339 157.81)" fill="#D74646"/>
<ellipse cx="212.929" cy="113.883" rx="0.613312" ry="1.21766" transform="rotate(-90 212.929 113.883)" fill="#D74646"/>
<ellipse cx="151.196" cy="78.3862" rx="0.613312" ry="1.21766" transform="rotate(-90 151.196 78.3862)" fill="#D74646"/>
<ellipse cx="245.611" cy="47.7705" rx="0.613312" ry="1.21766" transform="rotate(-90 245.611 47.7705)" fill="#D74646"/>
<ellipse cx="279.201" cy="100.128" rx="0.613312" ry="1.21766" transform="rotate(-90 279.201 100.128)" fill="#D74646"/>
<ellipse cx="163.968" cy="196.607" rx="0.613312" ry="1.21766" transform="rotate(-90 163.968 196.607)" fill="#353535"/>
<ellipse cx="154.227" cy="182.705" rx="0.613312" ry="1.21766" transform="rotate(-90 154.227 182.705)" fill="#353535"/>
<ellipse cx="52.7548" cy="179.434" rx="0.613312" ry="1.21766" transform="rotate(-90 52.7548 179.434)" fill="#353535"/>
<ellipse cx="61.6849" cy="137.729" rx="0.613312" ry="1.21766" transform="rotate(-90 61.6849 137.729)" fill="#353535"/>
<ellipse cx="187.509" cy="53.5009" rx="0.613312" ry="1.21766" transform="rotate(-90 187.509 53.5009)" fill="#353535"/>
<ellipse cx="151.791" cy="28.5595" rx="0.613312" ry="1.21766" transform="rotate(-90 151.791 28.5595)" fill="#353535"/>
<ellipse cx="274.369" cy="12.6133" rx="0.613312" ry="1.21766" transform="rotate(-90 274.369 12.6133)" fill="#353535"/>
<ellipse cx="310.898" cy="24.062" rx="0.613312" ry="1.21766" transform="rotate(-90 310.898 24.062)" fill="#353535"/>
<ellipse cx="588.524" cy="24.062" rx="0.613312" ry="1.21766" transform="rotate(-90 588.524 24.062)" fill="#353535"/>
<ellipse cx="612.065" cy="37.146" rx="0.613312" ry="1.21766" transform="rotate(-90 612.065 37.146)" fill="#353535"/>
<ellipse cx="785.784" cy="105.019" rx="0.613312" ry="1.21766" transform="rotate(-90 785.784 105.019)" fill="#353535"/>
<ellipse cx="772.796" cy="166.759" rx="0.613312" ry="1.21766" transform="rotate(-90 772.796 166.759)" fill="#353535"/>
<ellipse cx="761.431" cy="132.005" rx="0.613312" ry="1.21766" transform="rotate(-90 761.431 132.005)" fill="#353535"/>
<ellipse cx="668.078" cy="62.4961" rx="0.613312" ry="1.21766" transform="rotate(-90 668.078 62.4961)" fill="#353535"/>
<ellipse cx="712.724" cy="24.4707" rx="0.613312" ry="1.21766" transform="rotate(-90 712.724 24.4707)" fill="#353535"/>
<ellipse cx="743.572" cy="69.4467" rx="0.613312" ry="1.21766" transform="rotate(-90 743.572 69.4467)" fill="#353535"/>
<ellipse cx="118.508" cy="82.9394" rx="0.613312" ry="1.21766" transform="rotate(-90 118.508 82.9394)" fill="#353535"/>
<ellipse cx="73.0492" cy="87.438" rx="0.613312" ry="1.21766" transform="rotate(-90 73.0492 87.438)" fill="#353535"/>
<ellipse cx="42.202" cy="27.7417" rx="0.613312" ry="1.21766" transform="rotate(-90 42.202 27.7417)" fill="#353535"/>
<ellipse cx="233.78" cy="253.032" rx="0.613312" ry="1.21766" transform="rotate(-90 233.78 253.032)" fill="#D74646"/>
<ellipse cx="229.269" cy="156.035" rx="0.613312" ry="1.21766" transform="rotate(-90 229.269 156.035)" fill="#D74646"/>
<ellipse cx="277.385" cy="159.141" rx="0.613312" ry="1.21766" transform="rotate(-90 277.385 159.141)" fill="#D74646"/>
<ellipse cx="186.601" cy="215.047" rx="0.613312" ry="1.21766" transform="rotate(-90 186.601 215.047)" fill="#D74646"/>
<ellipse cx="103.988" cy="95.6909" rx="0.613312" ry="1.21766" transform="rotate(-90 103.988 95.6909)" fill="#D74646"/>
<ellipse cx="202.943" cy="84.5981" rx="0.613312" ry="1.21766" transform="rotate(-90 202.943 84.5981)" fill="#D74646"/>
<ellipse cx="516.147" cy="46.4394" rx="0.613312" ry="1.21766" transform="rotate(-90 516.147 46.4394)" fill="#D74646"/>
<ellipse cx="614.193" cy="205.286" rx="0.613312" ry="1.21766" transform="rotate(-90 614.193 205.286)" fill="#D74646"/>
<ellipse cx="580.603" cy="441.781" rx="0.613312" ry="1.21766" transform="rotate(-90 580.603 441.781)" fill="#D74646"/>
<ellipse cx="568.801" cy="493.25" rx="0.613312" ry="1.21766" transform="rotate(-90 568.801 493.25)" fill="#D74646"/>
<ellipse cx="606.023" cy="512.773" rx="0.613312" ry="1.21766" transform="rotate(-90 606.023 512.773)" fill="#D74646"/>
<ellipse cx="522.501" cy="519.872" rx="0.613312" ry="1.21766" transform="rotate(-90 522.501 519.872)" fill="#D74646"/>
<ellipse cx="521.594" cy="468.402" rx="0.613312" ry="1.21766" transform="rotate(-90 521.594 468.402)" fill="#D74646"/>
<ellipse cx="591.497" cy="395.635" rx="0.613312" ry="1.21766" transform="rotate(-90 591.497 395.635)" fill="#D74646"/>
<ellipse cx="628.718" cy="254.98" rx="0.613312" ry="1.21766" transform="rotate(-90 628.718 254.98)" fill="#D74646"/>
<ellipse cx="538.842" cy="154.704" rx="0.613312" ry="1.21766" transform="rotate(-90 538.842 154.704)" fill="#D74646"/>
<ellipse cx="508.884" cy="112.552" rx="0.613312" ry="1.21766" transform="rotate(-90 508.884 112.552)" fill="#D74646"/>
<ellipse cx="571.525" cy="124.975" rx="0.613312" ry="1.21766" transform="rotate(-90 571.525 124.975)" fill="#D74646"/>
<ellipse cx="328.757" cy="229.317" rx="0.613312" ry="1.21766" transform="rotate(-90 328.757 229.317)" fill="#353535"/>
<ellipse cx="97.4027" cy="287.786" rx="0.613312" ry="1.21766" transform="rotate(-90 97.4027 287.786)" fill="#D74646"/>
<ellipse cx="112.015" cy="248.943" rx="0.613312" ry="1.21766" transform="rotate(-90 112.015 248.943)" fill="#D74646"/>
<ellipse cx="113.974" cy="149.379" rx="0.613312" ry="1.21766" transform="rotate(-90 113.974 149.379)" fill="#D74646"/>
<ellipse cx="439.159" cy="240.766" rx="0.613312" ry="1.21766" transform="rotate(-90 439.159 240.766)" fill="#353535"/>
<ellipse cx="463.511" cy="148.769" rx="0.613312" ry="1.21766" transform="rotate(-90 463.511 148.769)" fill="#353535"/>
<ellipse cx="331.193" cy="158.99" rx="0.613312" ry="1.21766" transform="rotate(-90 331.193 158.99)" fill="#353535"/>
<ellipse cx="439.159" cy="272.657" rx="0.613312" ry="1.21766" transform="rotate(-90 439.159 272.657)" fill="#353535"/>
<ellipse cx="665.642" cy="263.663" rx="0.613312" ry="1.21766" transform="rotate(-90 665.642 263.663)" fill="#353535"/>
<ellipse cx="536.571" cy="259.165" rx="0.613312" ry="1.21766" transform="rotate(-90 536.571 259.165)" fill="#353535"/>
<ellipse cx="669.702" cy="320.905" rx="0.613312" ry="1.21766" transform="rotate(-90 669.702 320.905)" fill="#D74646"/>
<ellipse cx="727.337" cy="277.564" rx="0.613312" ry="1.21766" transform="rotate(-90 727.337 277.564)" fill="#353535"/>
<ellipse cx="651.842" cy="204.375" rx="0.613312" ry="1.21766" transform="rotate(-90 651.842 204.375)" fill="#353535"/>
<ellipse cx="711.101" cy="333.989" rx="0.613312" ry="1.21766" transform="rotate(-90 711.101 333.989)" fill="#D74646"/>
<ellipse cx="730.584" cy="367.517" rx="0.613312" ry="1.21766" transform="rotate(-90 730.584 367.517)" fill="#D74646"/>
<ellipse cx="655.089" cy="355.659" rx="0.613312" ry="1.21766" transform="rotate(-90 655.089 355.659)" fill="#D74646"/>
<ellipse cx="702.983" cy="404.724" rx="0.613312" ry="1.21766" transform="rotate(-90 702.983 404.724)" fill="#D74646"/>
<ellipse cx="776.855" cy="345.029" rx="0.613312" ry="1.21766" transform="rotate(-90 776.855 345.029)" fill="#D74646"/>
<ellipse cx="663.206" cy="442.749" rx="0.613312" ry="1.21766" transform="rotate(-90 663.206 442.749)" fill="#D74646"/>
<ellipse cx="667.266" cy="505.716" rx="0.613312" ry="1.21766" transform="rotate(-90 667.266 505.716)" fill="#D74646"/>
<ellipse cx="711.913" cy="481.184" rx="0.613312" ry="1.21766" transform="rotate(-90 711.913 481.184)" fill="#D74646"/>
<ellipse cx="798.772" cy="433.345" rx="0.613312" ry="1.21766" transform="rotate(-90 798.772 433.345)" fill="#D74646"/>
<ellipse cx="120.133" cy="136.502" rx="0.613312" ry="1.21766" transform="rotate(-90 120.133 136.502)" fill="#353535"/>
<ellipse cx="317.392" cy="88.664" rx="0.613312" ry="1.21766" transform="rotate(-90 317.392 88.664)" fill="#353535"/>
<ellipse cx="206.992" cy="120.965" rx="0.613312" ry="1.21766" transform="rotate(-90 206.992 120.965)" fill="#353535"/>
<ellipse cx="182.638" cy="277.973" rx="0.613312" ry="1.21766" transform="rotate(-90 182.638 277.973)" fill="#D74646"/>
<ellipse cx="180.203" cy="306.185" rx="0.613312" ry="1.21766" transform="rotate(-90 180.203 306.185)" fill="#D74646"/>
<ellipse cx="164.779" cy="354.433" rx="0.613312" ry="1.21766" transform="rotate(-90 164.779 354.433)" fill="#D74646"/>
<ellipse cx="232.157" cy="334.398" rx="0.613312" ry="1.21766" transform="rotate(-90 232.157 334.398)" fill="#D74646"/>
<ellipse cx="189.945" cy="394.502" rx="0.613312" ry="1.21766" transform="rotate(-90 189.945 394.502)" fill="#D74646"/>
<ellipse cx="215.921" cy="205.602" rx="0.613312" ry="1.21766" transform="rotate(-90 215.921 205.602)" fill="#353535"/>
<ellipse cx="278.428" cy="206.829" rx="0.613312" ry="1.21766" transform="rotate(-90 278.428 206.829)" fill="#353535"/>
<ellipse cx="178.58" cy="448.065" rx="0.613312" ry="1.21766" transform="rotate(-90 178.58 448.065)" fill="#D74646"/>
<ellipse cx="156.662" cy="410.857" rx="0.613312" ry="1.21766" transform="rotate(-90 156.662 410.857)" fill="#D74646"/>
<ellipse cx="204.557" cy="472.598" rx="0.613312" ry="1.21766" transform="rotate(-90 204.557 472.598)" fill="#D74646"/>
<ellipse cx="227.286" cy="426.395" rx="0.613312" ry="1.21766" transform="rotate(-90 227.286 426.395)" fill="#D74646"/>
<ellipse cx="158.286" cy="482.41" rx="0.613312" ry="1.21766" transform="rotate(-90 158.286 482.41)" fill="#D74646"/>
<ellipse cx="176.956" cy="496.721" rx="0.613312" ry="1.21766" transform="rotate(-90 176.956 496.721)" fill="#D74646"/>
<ellipse cx="224.851" cy="516.347" rx="0.613312" ry="1.21766" transform="rotate(-90 224.851 516.347)" fill="#D74646"/>
<ellipse cx="48.6967" cy="392.458" rx="0.613312" ry="1.21766" transform="rotate(-90 48.6967 392.458)" fill="#D74646"/>
<ellipse cx="108.768" cy="486.908" rx="0.613312" ry="1.21766" transform="rotate(-90 108.768 486.908)" fill="#D74646"/>
<ellipse cx="113.638" cy="521.254" rx="0.613312" ry="1.21766" transform="rotate(-90 113.638 521.254)" fill="#D74646"/>
<ellipse cx="280.863" cy="597.304" rx="0.613312" ry="1.21766" transform="rotate(-90 280.863 597.304)" fill="#D74646"/>
<ellipse cx="50.3202" cy="550.692" rx="0.613312" ry="1.21766" transform="rotate(-90 50.3202 550.692)" fill="#D74646"/>
<ellipse cx="111.203" cy="554.781" rx="0.613312" ry="1.21766" transform="rotate(-90 111.203 554.781)" fill="#D74646"/>
<ellipse cx="107.144" cy="591.171" rx="0.613312" ry="1.21766" transform="rotate(-90 107.144 591.171)" fill="#D74646"/>
<ellipse cx="192.38" cy="610.388" rx="0.613312" ry="1.21766" transform="rotate(-90 192.38 610.388)" fill="#D74646"/>
<ellipse cx="357.981" cy="546.195" rx="0.613312" ry="1.21766" transform="rotate(-90 357.981 546.195)" fill="#D74646"/>
<ellipse cx="452.146" cy="551.919" rx="0.613312" ry="1.21766" transform="rotate(-90 452.146 551.919)" fill="#D74646"/>
<ellipse cx="534.135" cy="547.012" rx="0.613312" ry="1.21766" transform="rotate(-90 534.135 547.012)" fill="#D74646"/>
<ellipse cx="603.948" cy="536.79" rx="0.613312" ry="1.21766" transform="rotate(-90 603.948 536.79)" fill="#D74646"/>
<ellipse cx="654.277" cy="542.924" rx="0.613312" ry="1.21766" transform="rotate(-90 654.277 542.924)" fill="#D74646"/>
<ellipse cx="728.96" cy="525.342" rx="0.613312" ry="1.21766" transform="rotate(-90 728.96 525.342)" fill="#D74646"/>
<ellipse cx="222.415" cy="546.195" rx="0.613312" ry="1.21766" transform="rotate(-90 222.415 546.195)" fill="#D74646"/>
<ellipse cx="345.805" cy="586.673" rx="0.613312" ry="1.21766" transform="rotate(-90 345.805 586.673)" fill="#D74646"/>
<ellipse cx="413.182" cy="603.028" rx="0.613312" ry="1.21766" transform="rotate(-90 413.182 603.028)" fill="#D74646"/>
<ellipse cx="236.216" cy="566.23" rx="0.613312" ry="1.21766" transform="rotate(-90 236.216 566.23)" fill="#D74646"/>
<ellipse cx="527.641" cy="603.846" rx="0.613312" ry="1.21766" transform="rotate(-90 527.641 603.846)" fill="#D74646"/>
<ellipse cx="595.83" cy="578.496" rx="0.613312" ry="1.21766" transform="rotate(-90 595.83 578.496)" fill="#D74646"/>
<ellipse cx="736.266" cy="580.131" rx="0.613312" ry="1.21766" transform="rotate(-90 736.266 580.131)" fill="#D74646"/>
<ellipse cx="59.2494" cy="475.869" rx="0.613312" ry="1.21766" transform="rotate(-90 59.2494 475.869)" fill="#D74646"/>
<ellipse cx="81.573" cy="503.467" rx="0.408875" ry="0.811771" transform="rotate(-90 81.573 503.467)" fill="#00B1FD"/>
<ellipse cx="111.609" cy="391.436" rx="0.408875" ry="0.811771" transform="rotate(-90 111.609 391.436)" fill="#00B1FD"/>
<ellipse cx="82.3845" cy="567.252" rx="0.408875" ry="0.811771" transform="rotate(-90 82.3845 567.252)" fill="#00B1FD"/>
<ellipse cx="161.127" cy="581.154" rx="0.408875" ry="0.811771" transform="rotate(-90 161.127 581.154)" fill="#00B1FD"/>
<ellipse cx="97.8083" cy="452.358" rx="0.408875" ry="0.811771" transform="rotate(-90 97.8083 452.358)" fill="#00B1FD"/>
<ellipse cx="101.868" cy="310.888" rx="0.408875" ry="0.811771" transform="rotate(-90 101.868 310.888)" fill="#00B1FD"/>
<ellipse cx="71.8318" cy="288.808" rx="0.408875" ry="0.811771" transform="rotate(-90 71.8318 288.808)" fill="#00B1FD"/>
<ellipse cx="352.704" cy="278.178" rx="0.408875" ry="0.811771" transform="rotate(-90 352.704 278.178)" fill="#00B1FD"/>
<ellipse cx="84.0085" cy="236.472" rx="0.408875" ry="0.811771" transform="rotate(-90 84.0085 236.472)" fill="#00B1FD"/>
<ellipse cx="124.463" cy="234.775" rx="0.408875" ry="0.811771" transform="rotate(-90 124.463 234.775)" fill="#00B1FD"/>
<ellipse cx="215.246" cy="281.364" rx="0.408875" ry="0.811771" transform="rotate(-90 215.246 281.364)" fill="#00B1FD"/>
<ellipse cx="156.237" cy="287.132" rx="0.408875" ry="0.811771" transform="rotate(-90 156.237 287.132)" fill="#00B1FD"/>
<ellipse cx="213.43" cy="361.674" rx="0.408875" ry="0.811771" transform="rotate(-90 213.43 361.674)" fill="#00B1FD"/>
<ellipse cx="215.246" cy="228.119" rx="0.408875" ry="0.811771" transform="rotate(-90 215.246 228.119)" fill="#00B1FD"/>
<ellipse cx="147.158" cy="201.054" rx="0.408875" ry="0.811771" transform="rotate(-90 147.158 201.054)" fill="#00B1FD"/>
<ellipse cx="150.79" cy="149.139" rx="0.408875" ry="0.811771" transform="rotate(-90 150.79 149.139)" fill="#00B1FD"/>
<ellipse cx="114.476" cy="122.074" rx="0.408875" ry="0.811771" transform="rotate(-90 114.476 122.074)" fill="#00B1FD"/>
<ellipse cx="95.4119" cy="173.544" rx="0.408875" ry="0.811771" transform="rotate(-90 95.4119 173.544)" fill="#00B1FD"/>
<ellipse cx="157.145" cy="106.1" rx="0.408875" ry="0.811771" transform="rotate(-90 157.145 106.1)" fill="#00B1FD"/>
<ellipse cx="272.441" cy="63.0613" rx="0.408875" ry="0.811771" transform="rotate(-90 272.441 63.0613)" fill="#00B1FD"/>
<ellipse cx="300.583" cy="132.279" rx="0.408875" ry="0.811771" transform="rotate(-90 300.583 132.279)" fill="#00B1FD"/>
<ellipse cx="616.511" cy="223.239" rx="0.408875" ry="0.811771" transform="rotate(-90 616.511 223.239)" fill="#00B1FD"/>
<ellipse cx="515.741" cy="167.331" rx="0.408875" ry="0.811771" transform="rotate(-90 515.741 167.331)" fill="#00B1FD"/>
<ellipse cx="585.645" cy="474.819" rx="0.408875" ry="0.811771" transform="rotate(-90 585.645 474.819)" fill="#00B1FD"/>
<ellipse cx="522.095" cy="484.137" rx="0.408875" ry="0.811771" transform="rotate(-90 522.095 484.137)" fill="#00B1FD"/>
<ellipse cx="75.8914" cy="367.721" rx="0.408875" ry="0.811771" transform="rotate(-90 75.8914 367.721)" fill="#00B1FD"/>
<ellipse cx="263.409" cy="278.586" rx="0.408875" ry="0.811771" transform="rotate(-90 263.409 278.586)" fill="#00B1FD"/>
<ellipse cx="160.315" cy="548.035" rx="0.408875" ry="0.811771" transform="rotate(-90 160.315 548.035)" fill="#00B1FD"/>
<ellipse cx="234.998" cy="590.149" rx="0.408875" ry="0.811771" transform="rotate(-90 234.998 590.149)" fill="#00B1FD"/>
<ellipse cx="310.492" cy="586.878" rx="0.408875" ry="0.811771" transform="rotate(-90 310.492 586.878)" fill="#00B1FD"/>
<ellipse cx="302.375" cy="543.128" rx="0.408875" ry="0.811771" transform="rotate(-90 302.375 543.128)" fill="#00B1FD"/>
<ellipse cx="415.211" cy="546.808" rx="0.408875" ry="0.811771" transform="rotate(-90 415.211 546.808)" fill="#00B1FD"/>
<ellipse cx="394.917" cy="562.754" rx="0.408875" ry="0.811771" transform="rotate(-90 394.917 562.754)" fill="#00B1FD"/>
<ellipse cx="597.859" cy="555.803" rx="0.408875" ry="0.811771" transform="rotate(-90 597.859 555.803)" fill="#00B1FD"/>
<ellipse cx="667.672" cy="596.282" rx="0.408875" ry="0.811771" transform="rotate(-90 667.672 596.282)" fill="#00B1FD"/>
<ellipse cx="774.825" cy="512.462" rx="0.408875" ry="0.811771" transform="rotate(-90 774.825 512.462)" fill="#00B1FD"/>
<ellipse cx="510.188" cy="565.207" rx="0.408875" ry="0.811771" transform="rotate(-90 510.188 565.207)" fill="#00B1FD"/>
<ellipse cx="712.319" cy="505.921" rx="0.408875" ry="0.811771" transform="rotate(-90 712.319 505.921)" fill="#00B1FD"/>
<ellipse cx="661.177" cy="468.713" rx="0.408875" ry="0.811771" transform="rotate(-90 661.177 468.713)" fill="#00B1FD"/>
<ellipse cx="738.296" cy="443.772" rx="0.408875" ry="0.811771" transform="rotate(-90 738.296 443.772)" fill="#00B1FD"/>
<ellipse cx="655.495" cy="403.702" rx="0.408875" ry="0.811771" transform="rotate(-90 655.495 403.702)" fill="#00B1FD"/>
<ellipse cx="696.895" cy="368.538" rx="0.408875" ry="0.811771" transform="rotate(-90 696.895 368.538)" fill="#00B1FD"/>
<ellipse cx="774.013" cy="385.303" rx="0.408875" ry="0.811771" transform="rotate(-90 774.013 385.303)" fill="#00B1FD"/>
<ellipse cx="745.602" cy="321.927" rx="0.408875" ry="0.811771" transform="rotate(-90 745.602 321.927)" fill="#00B1FD"/>
<ellipse cx="700.953" cy="302.71" rx="0.408875" ry="0.811771" transform="rotate(-90 700.953 302.71)" fill="#00B1FD"/>
<ellipse cx="474.47" cy="252.009" rx="0.408875" ry="0.811771" transform="rotate(-90 474.47 252.009)" fill="#00B1FD"/>
<ellipse cx="360.823" cy="251.6" rx="0.408875" ry="0.811771" transform="rotate(-90 360.823 251.6)" fill="#00B1FD"/>
<ellipse cx="396.54" cy="216.029" rx="0.408875" ry="0.811771" transform="rotate(-90 396.54 216.029)" fill="#00B1FD"/>
<ellipse cx="396.54" cy="117.899" rx="0.408875" ry="0.811771" transform="rotate(-90 396.54 117.899)" fill="#00B1FD"/>
<ellipse cx="476.906" cy="93.7747" rx="0.408875" ry="0.811771" transform="rotate(-90 476.906 93.7747)" fill="#00B1FD"/>
<ellipse cx="549.965" cy="103.997" rx="0.408875" ry="0.811771" transform="rotate(-90 549.965 103.997)" fill="#00B1FD"/>
<ellipse cx="649.812" cy="148.973" rx="0.408875" ry="0.811771" transform="rotate(-90 649.812 148.973)" fill="#00B1FD"/>
<ellipse cx="687.966" cy="180.457" rx="0.408875" ry="0.811771" transform="rotate(-90 687.966 180.457)" fill="#00B1FD"/>
<ellipse cx="695.272" cy="235.655" rx="0.408875" ry="0.811771" transform="rotate(-90 695.272 235.655)" fill="#00B1FD"/>
<ellipse cx="662.801" cy="287.581" rx="0.408875" ry="0.811771" transform="rotate(-90 662.801 287.581)" fill="#00B1FD"/>
<ellipse cx="581.624" cy="236.472" rx="0.408875" ry="0.811771" transform="rotate(-90 581.624 236.472)" fill="#00B1FD"/>
<ellipse cx="475.282" cy="591.784" rx="0.408875" ry="0.811771" transform="rotate(-90 475.282 591.784)" fill="#00B1FD"/>
<defs>
<filter id="filter0_f_2535_495" x="378" y="0" width="31" height="628.033" filterUnits="userSpaceOnUse" color-interpolation-filters="sRGB">
<feFlood flood-opacity="0" result="BackgroundImageFix"/>
<feBlend mode="normal" in="SourceGraphic" in2="BackgroundImageFix" result="shape"/>
<feGaussianBlur stdDeviation="7.5" result="effect1_foregroundBlur_2535_495"/>
</filter>
<filter id="filter1_f_2535_495" x="283.376" y="200" width="222.418" height="228.679" filterUnits="userSpaceOnUse" color-interpolation-filters="sRGB">
<feFlood flood-opacity="0" result="BackgroundImageFix"/>
<feBlend mode="normal" in="SourceGraphic" in2="BackgroundImageFix" result="shape"/>
<feGaussianBlur stdDeviation="7.5" result="effect1_foregroundBlur_2535_495"/>
</filter>
</defs>
</svg>
