<svg width="806" height="629" viewBox="0 0 806 629" fill="none" xmlns="http://www.w3.org/2000/svg">
<g filter="url(#filter0_d_2798_545)">
<rect x="801.522" y="17.5208" width="593.07" height="797.011" transform="rotate(90 801.522 17.5208)" fill="black"/>
<g filter="url(#filter1_f_2798_545)">
<line x1="408.013" y1="15.489" x2="408.013" y2="613.522" stroke="white"/>
</g>
<g filter="url(#filter2_f_2798_545)">
<path d="M359.056 239.779L406.927 215.405L454.798 239.779L454.805 239.782L502.199 264.816L502.636 314.179V314.187L502.199 363.55L454.805 388.584L454.798 388.587L406.927 412.961L359.056 388.587L359.049 388.584L311.655 363.55L311.218 314.187V314.179L311.655 264.816L359.049 239.782L359.056 239.779Z" stroke="white"/>
</g>
</g>
<defs>
<filter id="filter0_d_2798_545" x="0.511719" y="15.489" width="805.011" height="606.033" filterUnits="userSpaceOnUse" color-interpolation-filters="sRGB">
<feFlood flood-opacity="0" result="BackgroundImageFix"/>
<feColorMatrix in="SourceAlpha" type="matrix" values="0 0 0 0 0 0 0 0 0 0 0 0 0 0 0 0 0 0 127 0" result="hardAlpha"/>
<feOffset dy="4"/>
<feGaussianBlur stdDeviation="2"/>
<feComposite in2="hardAlpha" operator="out"/>
<feColorMatrix type="matrix" values="0 0 0 0 0 0 0 0 0 0 0 0 0 0 0 0 0 0 0.25 0"/>
<feBlend mode="normal" in2="BackgroundImageFix" result="effect1_dropShadow_2798_545"/>
<feBlend mode="normal" in="SourceGraphic" in2="effect1_dropShadow_2798_545" result="shape"/>
</filter>
<filter id="filter1_f_2798_545" x="392.513" y="0.489014" width="31" height="628.033" filterUnits="userSpaceOnUse" color-interpolation-filters="sRGB">
<feFlood flood-opacity="0" result="BackgroundImageFix"/>
<feBlend mode="normal" in="SourceGraphic" in2="BackgroundImageFix" result="shape"/>
<feGaussianBlur stdDeviation="7.5" result="effect1_foregroundBlur_2798_545"/>
</filter>
<filter id="filter2_f_2798_545" x="295.718" y="199.844" width="222.419" height="228.679" filterUnits="userSpaceOnUse" color-interpolation-filters="sRGB">
<feFlood flood-opacity="0" result="BackgroundImageFix"/>
<feBlend mode="normal" in="SourceGraphic" in2="BackgroundImageFix" result="shape"/>
<feGaussianBlur stdDeviation="7.5" result="effect1_foregroundBlur_2798_545"/>
</filter>
</defs>
</svg>
